{
	"asset":{
		"generator":"Khronos glTF Blender I/O v4.0.44",
		"version":"2.0"
	},
	"scene":0,
	"scenes":[
		{
			"name":"Scene",
			"nodes":[
				0
			]
		}
	],
	"nodes":[
		{
			"mesh":0,
			"name":"Sign",
			"scale":[
				116.67988586425781,
				116.67988586425781,
				116.67988586425781
			],
			"translation":[
				7.511224746704102,
				14.785938262939453,
				-36.4506721496582
			]
		}
	],
	"materials":[
		{
			"name":"Herbs",
			"pbrMetallicRoughness":{
				"baseColorFactor":[
					0.17464743554592133,
					0.3515327274799347,
					0.05286067724227905,
					1
				],
				"metallicFactor":0.4000000059604645,
				"roughnessFactor":0.27216553688049316
			}
		},
		{
			"name":"Dark Wood",
			"pbrMetallicRoughness":{
				"baseColorFactor":[
					0.20863690972328186,
					0.08650043606758118,
					0.022173892706632614,
					1
				],
				"metallicFactor":0.4000000059604645
			}
		},
		{
			"name":"Light Wood",
			"pbrMetallicRoughness":{
				"baseColorFactor":[
					0.4396572411060333,
					0.21223069727420807,
					0.07227187603712082,
					1
				],
				"metallicFactor":0.4000000059604645
			}
		},
		{
			"name":"Rocks",
			"pbrMetallicRoughness":{
				"baseColorFactor":[
					0.3185391426086426,
					0.3185391426086426,
					0.3185391426086426,
					1
				],
				"metallicFactor":0.4000000059604645,
				"roughnessFactor":0.27216553688049316
			}
		}
	],
	"meshes":[
		{
			"name":"Sign11",
			"primitives":[
				{
					"attributes":{
						"POSITION":0,
						"NORMAL":1,
						"TEXCOORD_0":2
					},
					"indices":3,
					"material":0
				},
				{
					"attributes":{
						"POSITION":4,
						"NORMAL":5,
						"TEXCOORD_0":6
					},
					"indices":7,
					"material":1
				},
				{
					"attributes":{
						"POSITION":8,
						"NORMAL":9,
						"TEXCOORD_0":10
					},
					"indices":11,
					"material":2
				},
				{
					"attributes":{
						"POSITION":12,
						"NORMAL":13,
						"TEXCOORD_0":14
					},
					"indices":15,
					"material":3
				}
			]
		}
	],
	"accessors":[
		{
			"bufferView":0,
			"componentType":5126,
			"count":400,
			"max":[
				0.0025450068060308695,
				0.003784146858379245,
				0.0015090989181771874
			],
			"min":[
				-0.0006019988213665783,
				-2.2876771254232153e-05,
				-0.003684205701574683
			],
			"type":"VEC3"
		},
		{
			"bufferView":1,
			"componentType":5126,
			"count":400,
			"type":"VEC3"
		},
		{
			"bufferView":2,
			"componentType":5126,
			"count":400,
			"type":"VEC2"
		},
		{
			"bufferView":3,
			"componentType":5123,
			"count":540,
			"type":"SCALAR"
		},
		{
			"bufferView":4,
			"componentType":5126,
			"count":24,
			"max":[
				0.0013873579446226358,
				0.019825557246804237,
				-0.00033590540988370776
			],
			"min":[
				-0.00020857683557551354,
				7.390950941044139e-06,
				-0.0006399857229553163
			],
			"type":"VEC3"
		},
		{
			"bufferView":5,
			"componentType":5126,
			"count":24,
			"type":"VEC3"
		},
		{
			"bufferView":6,
			"componentType":5126,
			"count":24,
			"type":"VEC2"
		},
		{
			"bufferView":7,
			"componentType":5123,
			"count":36,
			"type":"SCALAR"
		},
		{
			"bufferView":8,
			"componentType":5126,
			"count":128,
			"max":[
				0.007700380403548479,
				0.021504435688257217,
				-4.681898280978203e-05
			],
			"min":[
				-0.006691620219498873,
				0.013091363944113255,
				-0.00031985752866603434
			],
			"type":"VEC3"
		},
		{
			"bufferView":9,
			"componentType":5126,
			"count":128,
			"type":"VEC3"
		},
		{
			"bufferView":10,
			"componentType":5126,
			"count":128,
			"type":"VEC2"
		},
		{
			"bufferView":11,
			"componentType":5123,
			"count":240,
			"type":"SCALAR"
		},
		{
			"bufferView":12,
			"componentType":5126,
			"count":66,
			"max":[
				-0.0006252259481698275,
				0.001911784172989428,
				0.0016401229659095407
			],
			"min":[
				-0.003718705615028739,
				0.00010778509022202343,
				-0.0019623066764324903
			],
			"type":"VEC3"
		},
		{
			"bufferView":13,
			"componentType":5126,
			"count":66,
			"type":"VEC3"
		},
		{
			"bufferView":14,
			"componentType":5126,
			"count":66,
			"type":"VEC2"
		},
		{
			"bufferView":15,
			"componentType":5123,
			"count":78,
			"type":"SCALAR"
		}
	],
	"bufferViews":[
		{
			"buffer":0,
			"byteLength":4800,
			"byteOffset":0,
			"target":34962
		},
		{
			"buffer":0,
			"byteLength":4800,
			"byteOffset":4800,
			"target":34962
		},
		{
			"buffer":0,
			"byteLength":3200,
			"byteOffset":9600,
			"target":34962
		},
		{
			"buffer":0,
			"byteLength":1080,
			"byteOffset":12800,
			"target":34963
		},
		{
			"buffer":0,
			"byteLength":288,
			"byteOffset":13880,
			"target":34962
		},
		{
			"buffer":0,
			"byteLength":288,
			"byteOffset":14168,
			"target":34962
		},
		{
			"buffer":0,
			"byteLength":192,
			"byteOffset":14456,
			"target":34962
		},
		{
			"buffer":0,
			"byteLength":72,
			"byteOffset":14648,
			"target":34963
		},
		{
			"buffer":0,
			"byteLength":1536,
			"byteOffset":14720,
			"target":34962
		},
		{
			"buffer":0,
			"byteLength":1536,
			"byteOffset":16256,
			"target":34962
		},
		{
			"buffer":0,
			"byteLength":1024,
			"byteOffset":17792,
			"target":34962
		},
		{
			"buffer":0,
			"byteLength":480,
			"byteOffset":18816,
			"target":34963
		},
		{
			"buffer":0,
			"byteLength":792,
			"byteOffset":19296,
			"target":34962
		},
		{
			"buffer":0,
			"byteLength":792,
			"byteOffset":20088,
			"target":34962
		},
		{
			"buffer":0,
			"byteLength":528,
			"byteOffset":20880,
			"target":34962
		},
		{
			"buffer":0,
			"byteLength":156,
			"byteOffset":21408,
			"target":34963
		}
	],
	"buffers":[
		{
			"byteLength":21564,
			"uri":"mdl_sign_main_v2.bin"
		}
	]
}
