{
	"asset":{
		"generator":"Khronos glTF Blender I/O v4.0.44",
		"version":"2.0"
	},
	"scene":0,
	"scenes":[
		{
			"name":"Scene",
			"nodes":[
				0
			]
		}
	],
	"nodes":[
		{
			"mesh":0,
			"name":"ChairPlayer",
			"rotation":[
				0,
				-0.7071066498756409,
				-0.70710688829422,
				3.090861255827804e-08
			],
			"scale":[
				162.2601318359375,
				162.2601318359375,
				162.2601318359375
			],
			"translation":[
				0.049172237515449524,
				0,
				3.712559461593628
			]
		}
	],
	"materials":[
		{
			"name":"Wood.003",
			"pbrMetallicRoughness":{
				"baseColorFactor":[
					0.1912340223789215,
					0.09083773195743561,
					0.05950695648789406,
					1
				],
				"metallicFactor":0.4000000059604645,
				"roughnessFactor":0.41508710384368896
			}
		}
	],
	"meshes":[
		{
			"name":"Chair_4",
			"primitives":[
				{
					"attributes":{
						"POSITION":0,
						"NORMAL":1
					},
					"indices":2,
					"material":0
				}
			]
		}
	],
	"accessors":[
		{
			"bufferView":0,
			"componentType":5126,
			"count":444,
			"max":[
				0.003808608977124095,
				0.004445720463991165,
				0.01764456182718277
			],
			"min":[
				-0.003808608977124095,
				-0.0038086159620434046,
				-3.317391747259535e-05
			],
			"type":"VEC3"
		},
		{
			"bufferView":1,
			"componentType":5126,
			"count":444,
			"type":"VEC3"
		},
		{
			"bufferView":2,
			"componentType":5123,
			"count":792,
			"type":"SCALAR"
		}
	],
	"bufferViews":[
		{
			"buffer":0,
			"byteLength":5328,
			"byteOffset":0,
			"target":34962
		},
		{
			"buffer":0,
			"byteLength":5328,
			"byteOffset":5328,
			"target":34962
		},
		{
			"buffer":0,
			"byteLength":1584,
			"byteOffset":10656,
			"target":34963
		}
	],
	"buffers":[
		{
			"byteLength":12240,
			"uri":"ChairPlayer.bin"
		}
	]
}
