{
  "asset": {
    "generator": "FBX2glTF v0.9.7",
    "version": "2.0"
  },
  "scene": 0,
  "buffers": [
    {
      "name": "mdl_lanternpost_main_v1",
      "byteLength": 40752,
      "uri": "data:application/octet-stream;base64,"
    }
  ],
  "bufferViews": [
    {
      "buffer": 0,
      "byteLength": 576,
      "byteOffset": 0,
      "target": 34963
    },
    {
      "buffer": 0,
      "byteLength": 2100,
      "byteOffset": 576,
      "target": 34962,
      "byteStride": 12
    },
    {
      "buffer": 0,
      "byteLength": 2100,
      "byteOffset": 2680,
      "target": 34962,
      "byteStride": 12
    },
    {
      "buffer": 0,
      "byteLength": 1400,
      "byteOffset": 4784,
      "target": 34962,
      "byteStride": 8
    },
    {
      "buffer": 0,
      "byteLength": 2832,
      "byteOffset": 6184,
      "target": 34963
    },
    {
      "buffer": 0,
      "byteLength": 6240,
      "byteOffset": 9016,
      "target": 34962,
      "byteStride": 12
    },
    {
      "buffer": 0,
      "byteLength": 6240,
      "byteOffset": 15256,
      "target": 34962,
      "byteStride": 12
    },
    {
      "buffer": 0,
      "byteLength": 4160,
      "byteOffset": 21496,
      "target": 34962,
      "byteStride": 8
    },
    {
      "buffer": 0,
      "byteOffset": 25656,
      "byteLength": 15093
    }
  ],
  "scenes": [
    {
      "name": "Root Scene",
      "nodes": [
        0
      ]
    }
  ],
  "accessors": [
    {
      "componentType": 5123,
      "type": "SCALAR",
      "count": 288,
      "bufferView": 0,
      "byteOffset": 0
    },
    {
      "componentType": 5126,
      "type": "VEC3",
      "count": 175,
      "bufferView": 1,
      "byteOffset": 0,
      "min": [
        -0.0020823935046792,
        -6.55670864824209e-11,
        -0.00216403021477163
      ],
      "max": [
        0.00215450138784945,
        0.0329999998211861,
        0.0134999984875321
      ]
    },
    {
      "componentType": 5126,
      "type": "VEC3",
      "count": 175,
      "bufferView": 2,
      "byteOffset": 0
    },
    {
      "componentType": 5126,
      "type": "VEC2",
      "count": 175,
      "bufferView": 3,
      "byteOffset": 0
    },
    {
      "componentType": 5123,
      "type": "SCALAR",
      "count": 1416,
      "bufferView": 4,
      "byteOffset": 0
    },
    {
      "componentType": 5126,
      "type": "VEC3",
      "count": 520,
      "bufferView": 5,
      "byteOffset": 0,
      "min": [
        -0.00320010050199926,
        -0.0130857536569238,
        -0.00320008024573326
      ],
      "max": [
        0.00320010050199926,
        0.00100000493694097,
        0.00320012075826526
      ]
    },
    {
      "componentType": 5126,
      "type": "VEC3",
      "count": 520,
      "bufferView": 6,
      "byteOffset": 0
    },
    {
      "componentType": 5126,
      "type": "VEC2",
      "count": 520,
      "bufferView": 7,
      "byteOffset": 0
    }
  ],
  "images": [
    {
      "name": "halloweenbits_texture.png",
      "bufferView": 8,
      "mimeType": "image/png"
    }
  ],
  "samplers": [
    {
      "wrapS": 10497,
      "wrapT": 10497
    }
  ],
  "textures": [
    {
      "name": "base_color_texture",
      "sampler": 0,
      "source": 0
    }
  ],
  "materials": [
    {
      "name": "HalloweenBits",
      "alphaMode": "OPAQUE",
      "extras": {
        "fromFBX": {
          "shadingModel": "Phong",
          "isTruePBR": false
        }
      },
      "pbrMetallicRoughness": {
        "baseColorTexture": {
          "index": 0,
          "texCoord": 0
        },
        "baseColorFactor": [
          1,
          1,
          1,
          1
        ],
        "metallicFactor": 0.400000005960464,
        "roughnessFactor": 1
      },
      "emissiveFactor": [
        0,
        0,
        0
      ],
      "doubleSided": false
    }
  ],
  "meshes": [
    {
      "name": "post_lantern",
      "primitives": [
        {
          "material": 0,
          "mode": 4,
          "attributes": {
            "NORMAL": 2,
            "POSITION": 1,
            "TEXCOORD_0": 3
          },
          "indices": 0
        }
      ]
    },
    {
      "name": "post_lantern_lantern",
      "primitives": [
        {
          "material": 0,
          "mode": 4,
          "attributes": {
            "NORMAL": 6,
            "POSITION": 5,
            "TEXCOORD_0": 7
          },
          "indices": 4
        }
      ]
    }
  ],
  "nodes": [
    {
      "name": "RootNode",
      "translation": [
        0,
        0,
        0
      ],
      "rotation": [
        0,
        0,
        0,
        1
      ],
      "scale": [
        1,
        1,
        1
      ],
      "children": [
        1
      ]
    },
    {
      "name": "post_lantern",
      "translation": [
        0,
        0,
        0
      ],
      "rotation": [
        8.14603353660459e-8,
        0,
        0,
        1
      ],
      "scale": [
        100,
        100,
        100
      ],
      "children": [
        2
      ],
      "mesh": 0
    },
    {
      "name": "post_lantern_lantern",
      "translation": [
        0,
        0.0299999993294477,
        0.00999997928738594
      ],
      "rotation": [
        0,
        0,
        0,
        1
      ],
      "scale": [
        1,
        1,
        1
      ],
      "mesh": 1
    }
  ]
}
