{
  "accessors": [
    {
      "name": "Node-Mesh_0_positions",
      "componentType": 5126,
      "count": 324,
      "min": [
        -0.10869289934635162,
        -0.7688153982162476,
        0.06486795842647552
      ],
      "max": [
        0.11137290298938751,
        -0.11229919642210007,
        0.19535160064697266
      ],
      "type": "VEC3",
      "bufferView": 0,
      "byteOffset": 0
    },
    {
      "name": "Node-Mesh_0_normals",
      "componentType": 5126,
      "count": 324,
      "min": [
        -1,
        -1,
        -1
      ],
      "max": [
        1,
        1,
        1
      ],
      "type": "VEC3",
      "bufferView": 1,
      "byteOffset": 0
    },
    {
      "name": "Node-Mesh_0_indices",
      "componentType": 5123,
      "count": 378,
      "min": [
        0
      ],
      "max": [
        323
      ],
      "type": "SCALAR",
      "bufferView": 2,
      "byteOffset": 0
    },
    {
      "name": "Node-Mesh_1_positions",
      "componentType": 5126,
      "count": 34,
      "min": [
        -0.16705380380153656,
        -0.38439059257507324,
        0.07156457751989365
      ],
      "max": [
        0.18069499731063843,
        0.14585080742835999,
        0.31207379698753357
      ],
      "type": "VEC3",
      "bufferView": 0,
      "byteOffset": 3888
    },
    {
      "name": "Node-Mesh_1_normals",
      "componentType": 5126,
      "count": 34,
      "min": [
        -1,
        -1,
        -1
      ],
      "max": [
        1,
        0.7302713990211487,
        1
      ],
      "type": "VEC3",
      "bufferView": 1,
      "byteOffset": 3888
    },
    {
      "name": "Node-Mesh_1_indices",
      "componentType": 5123,
      "count": 48,
      "min": [
        0
      ],
      "max": [
        33
      ],
      "type": "SCALAR",
      "bufferView": 2,
      "byteOffset": 756
    },
    {
      "name": "Node-Mesh_2_positions",
      "componentType": 5126,
      "count": 12,
      "min": [
        -0.10869289934635162,
        -0.33211830258369446,
        0.06486795842647552
      ],
      "max": [
        0.11129990220069885,
        -0.11229919642210007,
        0.07375475764274597
      ],
      "type": "VEC3",
      "bufferView": 0,
      "byteOffset": 4296
    },
    {
      "name": "Node-Mesh_2_normals",
      "componentType": 5126,
      "count": 12,
      "min": [
        0,
        0,
        -1
      ],
      "max": [
        0,
        0,
        -1
      ],
      "type": "VEC3",
      "bufferView": 1,
      "byteOffset": 4296
    },
    {
      "name": "Node-Mesh_2_indices",
      "componentType": 5123,
      "count": 30,
      "min": [
        0
      ],
      "max": [
        11
      ],
      "type": "SCALAR",
      "bufferView": 2,
      "byteOffset": 852
    },
    {
      "name": "Node-Mesh_3_positions",
      "componentType": 5126,
      "count": 394,
      "min": [
        -0.08254551887512207,
        -0.009102225303649902,
        -0.14613820612430573
      ],
      "max": [
        0.09920089691877365,
        0.13987000286579132,
        0.05380149185657501
      ],
      "type": "VEC3",
      "bufferView": 0,
      "byteOffset": 4440
    },
    {
      "name": "Node-Mesh_3_normals",
      "componentType": 5126,
      "count": 394,
      "min": [
        -1,
        -1,
        -0.8506507873535156
      ],
      "max": [
        1,
        1,
        0.9983468651771545
      ],
      "type": "VEC3",
      "bufferView": 1,
      "byteOffset": 4440
    },
    {
      "name": "Node-Mesh_3_indices",
      "componentType": 5123,
      "count": 402,
      "min": [
        0
      ],
      "max": [
        393
      ],
      "type": "SCALAR",
      "bufferView": 2,
      "byteOffset": 912
    },
    {
      "name": "Node-Mesh_4_positions",
      "componentType": 5126,
      "count": 666,
      "min": [
        -0.0292055606842041,
        -0.06497179716825485,
        -0.17342320084571838
      ],
      "max": [
        0.02771759033203125,
        0.11968369781970978,
        0.10432720184326172
      ],
      "type": "VEC3",
      "bufferView": 0,
      "byteOffset": 9168
    },
    {
      "name": "Node-Mesh_4_normals",
      "componentType": 5126,
      "count": 666,
      "min": [
        -1,
        -1,
        -1
      ],
      "max": [
        1,
        1,
        1
      ],
      "type": "VEC3",
      "bufferView": 1,
      "byteOffset": 9168
    },
    {
      "name": "Node-Mesh_4_indices",
      "componentType": 5123,
      "count": 798,
      "min": [
        0
      ],
      "max": [
        665
      ],
      "type": "SCALAR",
      "bufferView": 2,
      "byteOffset": 1716
    },
    {
      "name": "Node-Mesh_5_positions",
      "componentType": 5126,
      "count": 576,
      "min": [
        -0.03119415044784546,
        0.04902375116944313,
        -0.10939940065145493
      ],
      "max": [
        0.03450078144669533,
        0.10222829878330231,
        -0.060827020555734634
      ],
      "type": "VEC3",
      "bufferView": 0,
      "byteOffset": 17160
    },
    {
      "name": "Node-Mesh_5_normals",
      "componentType": 5126,
      "count": 576,
      "min": [
        -1,
        -1,
        -1
      ],
      "max": [
        1,
        1,
        1
      ],
      "type": "VEC3",
      "bufferView": 1,
      "byteOffset": 17160
    },
    {
      "name": "Node-Mesh_5_indices",
      "componentType": 5123,
      "count": 864,
      "min": [
        0
      ],
      "max": [
        575
      ],
      "type": "SCALAR",
      "bufferView": 2,
      "byteOffset": 3312
    },
    {
      "name": "Node-Mesh_6_positions",
      "componentType": 5126,
      "count": 1932,
      "min": [
        -0.06916528940200806,
        -0.23392069339752197,
        -0.10228099673986435
      ],
      "max": [
        0.04775911942124367,
        0.17359879612922668,
        0.11114030331373215
      ],
      "type": "VEC3",
      "bufferView": 0,
      "byteOffset": 24072
    },
    {
      "name": "Node-Mesh_6_normals",
      "componentType": 5126,
      "count": 1932,
      "min": [
        -1,
        -1,
        -1
      ],
      "max": [
        1,
        1,
        1
      ],
      "type": "VEC3",
      "bufferView": 1,
      "byteOffset": 24072
    },
    {
      "name": "Node-Mesh_6_indices",
      "componentType": 5123,
      "count": 2172,
      "min": [
        0
      ],
      "max": [
        1931
      ],
      "type": "SCALAR",
      "bufferView": 2,
      "byteOffset": 5040
    },
    {
      "name": "Node-Mesh_7_positions",
      "componentType": 5126,
      "count": 78,
      "min": [
        -0.26525530219078064,
        -0.11378350108861923,
        0.05314106121659279
      ],
      "max": [
        0.2846390902996063,
        0.18857939541339874,
        0.35314109921455383
      ],
      "type": "VEC3",
      "bufferView": 0,
      "byteOffset": 47256
    },
    {
      "name": "Node-Mesh_7_normals",
      "componentType": 5126,
      "count": 78,
      "min": [
        -1,
        -0.8944273591041565,
        -1
      ],
      "max": [
        1,
        1,
        1
      ],
      "type": "VEC3",
      "bufferView": 1,
      "byteOffset": 47256
    },
    {
      "name": "Node-Mesh_7_indices",
      "componentType": 5123,
      "count": 108,
      "min": [
        0
      ],
      "max": [
        77
      ],
      "type": "SCALAR",
      "bufferView": 2,
      "byteOffset": 9384
    }
  ],
  "asset": {
    "generator": "obj2gltf",
    "version": "2.0"
  },
  "buffers": [
    {
      "name": "mdl_cuckooClock_main_v1",
      "byteLength": 105984,
      "uri": "data:application/octet-stream;base64,"
    }
  ],
  "bufferViews": [
    {
      "name": "bufferView_0",
      "buffer": 0,
      "byteLength": 48192,
      "byteOffset": 0,
      "byteStride": 12,
      "target": 34962
    },
    {
      "name": "bufferView_1",
      "buffer": 0,
      "byteLength": 48192,
      "byteOffset": 48192,
      "byteStride": 12,
      "target": 34962
    },
    {
      "name": "bufferView_2",
      "buffer": 0,
      "byteLength": 9600,
      "byteOffset": 96384,
      "target": 34963
    }
  ],
  "materials": [
    {
      "name": "mat12",
      "pbrMetallicRoughness": {
        "baseColorFactor": [
          1,
          0.83,
          0.04,
          1
        ],
        "metallicFactor": 0,
        "roughnessFactor": 1
      },
      "emissiveFactor": [
        0,
        0,
        0
      ],
      "alphaMode": "OPAQUE",
      "doubleSided": false
    },
    {
      "name": "mat20",
      "pbrMetallicRoughness": {
        "baseColorFactor": [
          0.19,
          0.09,
          0.06,
          1
        ],
        "metallicFactor": 0,
        "roughnessFactor": 1
      },
      "emissiveFactor": [
        0,
        0,
        0
      ],
      "alphaMode": "OPAQUE",
      "doubleSided": false
    },
    {
      "name": "mat21",
      "pbrMetallicRoughness": {
        "baseColorFactor": [
          1,
          1,
          1,
          1
        ],
        "metallicFactor": 0,
        "roughnessFactor": 1
      },
      "emissiveFactor": [
        0,
        0,
        0
      ],
      "alphaMode": "OPAQUE",
      "doubleSided": false
    },
    {
      "name": "mat3",
      "pbrMetallicRoughness": {
        "baseColorFactor": [
          0.22,
          0.74,
          0.83,
          1
        ],
        "metallicFactor": 0,
        "roughnessFactor": 1
      },
      "emissiveFactor": [
        0,
        0,
        0
      ],
      "alphaMode": "OPAQUE",
      "doubleSided": false
    },
    {
      "name": "mat17",
      "pbrMetallicRoughness": {
        "baseColorFactor": [
          0.06,
          0.1,
          0.13,
          1
        ],
        "metallicFactor": 0,
        "roughnessFactor": 1
      },
      "emissiveFactor": [
        0,
        0,
        0
      ],
      "alphaMode": "OPAQUE",
      "doubleSided": false
    },
    {
      "name": "mat15",
      "pbrMetallicRoughness": {
        "baseColorFactor": [
          0.63,
          0.7,
          0.72,
          1
        ],
        "metallicFactor": 0,
        "roughnessFactor": 1
      },
      "emissiveFactor": [
        0,
        0,
        0
      ],
      "alphaMode": "OPAQUE",
      "doubleSided": false
    },
    {
      "name": "mat23",
      "pbrMetallicRoughness": {
        "baseColorFactor": [
          0.01,
          0.01,
          0.01,
          1
        ],
        "metallicFactor": 0,
        "roughnessFactor": 1
      },
      "emissiveFactor": [
        0,
        0,
        0
      ],
      "alphaMode": "OPAQUE",
      "doubleSided": false
    },
    {
      "name": "mat19",
      "pbrMetallicRoughness": {
        "baseColorFactor": [
          0.74,
          0.33,
          0.06,
          1
        ],
        "metallicFactor": 0,
        "roughnessFactor": 1
      },
      "emissiveFactor": [
        0,
        0,
        0
      ],
      "alphaMode": "OPAQUE",
      "doubleSided": false
    }
  ],
  "meshes": [
    {
      "name": "Node-Mesh",
      "primitives": [
        {
          "attributes": {
            "POSITION": 0,
            "NORMAL": 1
          },
          "indices": 2,
          "material": 0,
          "mode": 4
        },
        {
          "attributes": {
            "POSITION": 3,
            "NORMAL": 4
          },
          "indices": 5,
          "material": 1,
          "mode": 4
        },
        {
          "attributes": {
            "POSITION": 6,
            "NORMAL": 7
          },
          "indices": 8,
          "material": 2,
          "mode": 4
        },
        {
          "attributes": {
            "POSITION": 9,
            "NORMAL": 10
          },
          "indices": 11,
          "material": 3,
          "mode": 4
        },
        {
          "attributes": {
            "POSITION": 12,
            "NORMAL": 13
          },
          "indices": 14,
          "material": 4,
          "mode": 4
        },
        {
          "attributes": {
            "POSITION": 15,
            "NORMAL": 16
          },
          "indices": 17,
          "material": 5,
          "mode": 4
        },
        {
          "attributes": {
            "POSITION": 18,
            "NORMAL": 19
          },
          "indices": 20,
          "material": 6,
          "mode": 4
        },
        {
          "attributes": {
            "POSITION": 21,
            "NORMAL": 22
          },
          "indices": 23,
          "material": 7,
          "mode": 4
        }
      ]
    }
  ],
  "nodes": [
    {
      "name": "Node",
      "mesh": 0
    }
  ],
  "scene": 0,
  "scenes": [
    {
      "nodes": [
        0
      ]
    }
  ]
}
