{
  "asset": {
    "generator": "FBX2glTF v0.9.7",
    "version": "2.0"
  },
  "scene": 0,
  "buffers": [
    {
      "name": "mdl_key1_main_v1",
      "byteLength": 15288,
      "uri": "data:application/octet-stream;base64,"
    }
  ],
  "bufferViews": [
    {
      "buffer": 0,
      "byteLength": 1704,
      "byteOffset": 0,
      "target": 34963
    },
    {
      "buffer": 0,
      "byteLength": 6792,
      "byteOffset": 1704,
      "target": 34962,
      "byteStride": 12
    },
    {
      "buffer": 0,
      "byteLength": 6792,
      "byteOffset": 8496,
      "target": 34962,
      "byteStride": 12
    }
  ],
  "scenes": [
    {
      "name": "Root Scene",
      "nodes": [
        0
      ]
    }
  ],
  "accessors": [
    {
      "componentType": 5123,
      "type": "SCALAR",
      "count": 852,
      "bufferView": 0,
      "byteOffset": 0
    },
    {
      "componentType": 5126,
      "type": "VEC3",
      "count": 566,
      "bufferView": 1,
      "byteOffset": 0,
      "min": [
        -0.00145535753108561,
        -0.00472779665142298,
        -0.000452920474344864
      ],
      "max": [
        0.00146621407475322,
        0.00393803277984262,
        0.000499942863825709
      ]
    },
    {
      "componentType": 5126,
      "type": "VEC3",
      "count": 566,
      "bufferView": 2,
      "byteOffset": 0
    }
  ],
  "samplers": [],
  "materials": [
    {
      "name": "Brown",
      "alphaMode": "OPAQUE",
      "extras": {
        "fromFBX": {
          "shadingModel": "Phong",
          "isTruePBR": false
        }
      },
      "pbrMetallicRoughness": {
        "baseColorFactor": [
          0.110062144696712,
          0.0599538050591946,
          0.0408735908567905,
          1
        ],
        "metallicFactor": 0.400000005960464,
        "roughnessFactor": 0.415087103843689
      },
      "emissiveFactor": [
        0,
        0,
        0
      ],
      "doubleSided": false
    }
  ],
  "meshes": [
    {
      "name": "Key1",
      "primitives": [
        {
          "material": 0,
          "mode": 4,
          "attributes": {
            "NORMAL": 2,
            "POSITION": 1
          },
          "indices": 0
        }
      ]
    }
  ],
  "nodes": [
    {
      "name": "RootNode",
      "translation": [
        0,
        0,
        0
      ],
      "rotation": [
        0,
        0,
        0,
        1
      ],
      "scale": [
        1,
        1,
        1
      ],
      "children": [
        1
      ]
    },
    {
      "name": "Key1",
      "translation": [
        0,
        0,
        0
      ],
      "rotation": [
        -0.707106828689575,
        0,
        0,
        0.707106709480286
      ],
      "scale": [
        100,
        100,
        100
      ],
      "mesh": 0
    }
  ]
}
