{
  "asset": {
    "generator": "FBX2glTF v0.9.7",
    "version": "2.0"
  },
  "scene": 0,
  "buffers": [
    {
      "name": "mdl_hanginglantern_main_v1",
      "byteLength": 34568,
      "uri": "data:application/octet-stream;base64,"
    }
  ],
  "bufferViews": [
    {
      "buffer": 0,
      "byteLength": 2832,
      "byteOffset": 0,
      "target": 34963
    },
    {
      "buffer": 0,
      "byteLength": 6240,
      "byteOffset": 2832,
      "target": 34962,
      "byteStride": 12
    },
    {
      "buffer": 0,
      "byteLength": 6240,
      "byteOffset": 9072,
      "target": 34962,
      "byteStride": 12
    },
    {
      "buffer": 0,
      "byteLength": 4160,
      "byteOffset": 15312,
      "target": 34962,
      "byteStride": 8
    },
    {
      "buffer": 0,
      "byteOffset": 19472,
      "byteLength": 15093
    }
  ],
  "scenes": [
    {
      "name": "Root Scene",
      "nodes": [
        0
      ]
    }
  ],
  "accessors": [
    {
      "componentType": 5123,
      "type": "SCALAR",
      "count": 1416,
      "bufferView": 0,
      "byteOffset": 0
    },
    {
      "componentType": 5126,
      "type": "VEC3",
      "count": 520,
      "bufferView": 1,
      "byteOffset": 0,
      "min": [
        -0.00320010050199926,
        -0.0130857536569238,
        -0.00320008117705584
      ],
      "max": [
        0.00320010050199926,
        0.00100000482052565,
        0.00320012005977333
      ]
    },
    {
      "componentType": 5126,
      "type": "VEC3",
      "count": 520,
      "bufferView": 2,
      "byteOffset": 0
    },
    {
      "componentType": 5126,
      "type": "VEC2",
      "count": 520,
      "bufferView": 3,
      "byteOffset": 0
    }
  ],
  "images": [
    {
      "name": "halloweenbits_texture.png",
      "bufferView": 4,
      "mimeType": "image/png"
    }
  ],
  "samplers": [
    {
      "wrapS": 10497,
      "wrapT": 10497
    }
  ],
  "textures": [
    {
      "name": "base_color_texture",
      "sampler": 0,
      "source": 0
    }
  ],
  "materials": [
    {
      "name": "HalloweenBits",
      "alphaMode": "OPAQUE",
      "extras": {
        "fromFBX": {
          "shadingModel": "Phong",
          "isTruePBR": false
        }
      },
      "pbrMetallicRoughness": {
        "baseColorTexture": {
          "index": 0,
          "texCoord": 0
        },
        "baseColorFactor": [
          1,
          1,
          1,
          1
        ],
        "metallicFactor": 0.400000005960464,
        "roughnessFactor": 1
      },
      "emissiveFactor": [
        0,
        0,
        0
      ],
      "doubleSided": false
    }
  ],
  "meshes": [
    {
      "name": "lantern_hanging",
      "primitives": [
        {
          "material": 0,
          "mode": 4,
          "attributes": {
            "NORMAL": 2,
            "POSITION": 1,
            "TEXCOORD_0": 3
          },
          "indices": 0
        }
      ]
    }
  ],
  "nodes": [
    {
      "name": "RootNode",
      "translation": [
        0,
        0,
        0
      ],
      "rotation": [
        0,
        0,
        0,
        1
      ],
      "scale": [
        1,
        1,
        1
      ],
      "children": [
        1
      ]
    },
    {
      "name": "lantern_hanging",
      "translation": [
        0,
        0,
        0
      ],
      "rotation": [
        8.14603353660459e-8,
        0,
        0,
        1
      ],
      "scale": [
        100,
        100,
        100
      ],
      "mesh": 0
    }
  ]
}
