{
	"asset":{
		"generator":"Khronos glTF Blender I/O v4.0.44",
		"version":"2.0"
	},
	"scene":0,
	"scenes":[
		{
			"name":"Scene",
			"nodes":[
				0
			]
		}
	],
	"nodes":[
		{
			"mesh":0,
			"name":"TableSimple",
			"scale":[
				1.9773468971252441,
				1.9773468971252441,
				1.9773468971252441
			],
			"translation":[
				-0.37416255474090576,
				2.4553802013397217,
				12.483931541442871
			]
		}
	],
	"materials":[
		{
			"name":"mat20",
			"pbrMetallicRoughness":{
				"baseColorFactor":[
					0.1899999976158142,
					0.09000000357627869,
					0.05999999865889549,
					1
				],
				"metallicFactor":0
			}
		}
	],
	"meshes":[
		{
			"name":"Node-Mesh",
			"primitives":[
				{
					"attributes":{
						"POSITION":0,
						"NORMAL":1
					},
					"indices":2,
					"material":0
				}
			]
		}
	],
	"accessors":[
		{
			"bufferView":0,
			"componentType":5126,
			"count":328,
			"max":[
				1.066504955291748,
				0.4322179853916168,
				0.4114241898059845
			],
			"min":[
				-1.0682849884033203,
				-0.6714305281639099,
				-0.40964820981025696
			],
			"type":"VEC3"
		},
		{
			"bufferView":1,
			"componentType":5126,
			"count":328,
			"type":"VEC3"
		},
		{
			"bufferView":2,
			"componentType":5123,
			"count":480,
			"type":"SCALAR"
		}
	],
	"bufferViews":[
		{
			"buffer":0,
			"byteLength":3936,
			"byteOffset":0,
			"target":34962
		},
		{
			"buffer":0,
			"byteLength":3936,
			"byteOffset":3936,
			"target":34962
		},
		{
			"buffer":0,
			"byteLength":960,
			"byteOffset":7872,
			"target":34963
		}
	],
	"buffers":[
		{
			"byteLength":8832,
			"uri":"mdl_simpletable_main_v2.bin"
		}
	]
}
