{
  "asset": {
    "generator": "FBX2glTF v0.9.7",
    "version": "2.0"
  },
  "scene": 0,
  "buffers": [
    {
      "name": "mdl_key3_main_v1",
      "byteLength": 40032,
      "uri": "data:application/octet-stream;base64,"
    }
  ],
  "bufferViews": [
    {
      "buffer": 0,
      "byteLength": 4464,
      "byteOffset": 0,
      "target": 34963
    },
    {
      "buffer": 0,
      "byteLength": 17784,
      "byteOffset": 4464,
      "target": 34962,
      "byteStride": 12
    },
    {
      "buffer": 0,
      "byteLength": 17784,
      "byteOffset": 22248,
      "target": 34962,
      "byteStride": 12
    }
  ],
  "scenes": [
    {
      "name": "Root Scene",
      "nodes": [
        0
      ]
    }
  ],
  "accessors": [
    {
      "componentType": 5123,
      "type": "SCALAR",
      "count": 2232,
      "bufferView": 0,
      "byteOffset": 0
    },
    {
      "componentType": 5126,
      "type": "VEC3",
      "count": 1482,
      "bufferView": 1,
      "byteOffset": 0,
      "min": [
        -0.00229169242084026,
        -0.00472883740440011,
        -0.000428678409662098
      ],
      "max": [
        0.00229911063797772,
        0.00617230031639338,
        0.000430478859925643
      ]
    },
    {
      "componentType": 5126,
      "type": "VEC3",
      "count": 1482,
      "bufferView": 2,
      "byteOffset": 0
    }
  ],
  "samplers": [],
  "materials": [
    {
      "name": "DarkSteel",
      "alphaMode": "OPAQUE",
      "extras": {
        "fromFBX": {
          "shadingModel": "Phong",
          "isTruePBR": false
        }
      },
      "pbrMetallicRoughness": {
        "baseColorFactor": [
          0.213084504008293,
          0.213084504008293,
          0.178582414984703,
          1
        ],
        "metallicFactor": 0.400000005960464,
        "roughnessFactor": 0.415087103843689
      },
      "emissiveFactor": [
        0,
        0,
        0
      ],
      "doubleSided": false
    }
  ],
  "meshes": [
    {
      "name": "Key3",
      "primitives": [
        {
          "material": 0,
          "mode": 4,
          "attributes": {
            "NORMAL": 2,
            "POSITION": 1
          },
          "indices": 0
        }
      ]
    }
  ],
  "nodes": [
    {
      "name": "RootNode",
      "translation": [
        0,
        0,
        0
      ],
      "rotation": [
        0,
        0,
        0,
        1
      ],
      "scale": [
        1,
        1,
        1
      ],
      "children": [
        1
      ]
    },
    {
      "name": "Key3",
      "translation": [
        0,
        0,
        0
      ],
      "rotation": [
        -0.707106828689575,
        0,
        0,
        0.707106709480286
      ],
      "scale": [
        100,
        100,
        100
      ],
      "mesh": 0
    }
  ]
}
