{
	"asset":{
		"generator":"Khronos glTF Blender I/O v4.0.44",
		"version":"2.0"
	},
	"scene":0,
	"scenes":[
		{
			"name":"Scene",
			"nodes":[
				0
			]
		}
	],
	"nodes":[
		{
			"mesh":0,
			"name":"Birdcage",
			"scale":[
				100,
				100,
				100
			],
			"translation":[
				-7.125420570373535,
				3.010288715362549,
				7.9254536628723145
			]
		}
	],
	"materials":[
		{
			"name":"DarkMetal",
			"pbrMetallicRoughness":{
				"baseColorFactor":[
					0.16264253854751587,
					0.16264253854751587,
					0.16264253854751587,
					1
				],
				"metallicFactor":0.4000000059604645,
				"roughnessFactor":0.27216553688049316
			}
		},
		{
			"name":"Metal.001",
			"pbrMetallicRoughness":{
				"baseColorFactor":[
					0.36723896861076355,
					0.36723896861076355,
					0.36723896861076355,
					1
				],
				"metallicFactor":0.4000000059604645,
				"roughnessFactor":0.27216553688049316
			}
		}
	],
	"meshes":[
		{
			"name":"torture_device_013",
			"primitives":[
				{
					"attributes":{
						"POSITION":0,
						"NORMAL":1,
						"TEXCOORD_0":2
					},
					"indices":3,
					"material":0
				},
				{
					"attributes":{
						"POSITION":4,
						"NORMAL":5,
						"TEXCOORD_0":6
					},
					"indices":7,
					"material":1
				}
			]
		}
	],
	"accessors":[
		{
			"bufferView":0,
			"componentType":5126,
			"count":1638,
			"max":[
				0.0063284519128501415,
				0.016172703355550766,
				0.00632844865322113
			],
			"min":[
				-0.00632844865322113,
				-2.7662538926165325e-10,
				-0.006328451447188854
			],
			"type":"VEC3"
		},
		{
			"bufferView":1,
			"componentType":5126,
			"count":1638,
			"type":"VEC3"
		},
		{
			"bufferView":2,
			"componentType":5126,
			"count":1638,
			"type":"VEC2"
		},
		{
			"bufferView":3,
			"componentType":5123,
			"count":4800,
			"type":"SCALAR"
		},
		{
			"bufferView":4,
			"componentType":5126,
			"count":706,
			"max":[
				0.006144325714558363,
				0.021761205047369003,
				0.006144321523606777
			],
			"min":[
				-0.006144321523606777,
				3.3543997233209666e-06,
				-0.006144323851913214
			],
			"type":"VEC3"
		},
		{
			"bufferView":5,
			"componentType":5126,
			"count":706,
			"type":"VEC3"
		},
		{
			"bufferView":6,
			"componentType":5126,
			"count":706,
			"type":"VEC2"
		},
		{
			"bufferView":7,
			"componentType":5123,
			"count":1920,
			"type":"SCALAR"
		}
	],
	"bufferViews":[
		{
			"buffer":0,
			"byteLength":19656,
			"byteOffset":0,
			"target":34962
		},
		{
			"buffer":0,
			"byteLength":19656,
			"byteOffset":19656,
			"target":34962
		},
		{
			"buffer":0,
			"byteLength":13104,
			"byteOffset":39312,
			"target":34962
		},
		{
			"buffer":0,
			"byteLength":9600,
			"byteOffset":52416,
			"target":34963
		},
		{
			"buffer":0,
			"byteLength":8472,
			"byteOffset":62016,
			"target":34962
		},
		{
			"buffer":0,
			"byteLength":8472,
			"byteOffset":70488,
			"target":34962
		},
		{
			"buffer":0,
			"byteLength":5648,
			"byteOffset":78960,
			"target":34962
		},
		{
			"buffer":0,
			"byteLength":3840,
			"byteOffset":84608,
			"target":34963
		}
	],
	"buffers":[
		{
			"byteLength":88448,
			"uri":"mdl_birdcage_main-v2.bin"
		}
	]
}
