{
	"asset":{
		"generator":"Khronos glTF Blender I/O v4.0.44",
		"version":"2.0"
	},
	"scene":0,
	"scenes":[
		{
			"name":"Scene",
			"nodes":[
				0
			]
		}
	],
	"nodes":[
		{
			"mesh":0,
			"name":"Rock",
			"rotation":[
				-0.70710688829422,
				0,
				0,
				0.7071066498756409
			],
			"scale":[
				3202.627197265625,
				3202.626953125,
				3202.626953125
			],
			"translation":[
				0,
				0,
				-32.19477462768555
			]
		}
	],
	"materials":[
		{
			"name":"Stone",
			"pbrMetallicRoughness":{
				"baseColorFactor":[
					0.24436430633068085,
					0.24618881940841675,
					0.21545054018497467,
					1
				],
				"metallicFactor":0.4000000059604645,
				"roughnessFactor":0.27216553688049316
			}
		},
		{
			"name":"Stone.001",
			"pbrMetallicRoughness":{
				"baseColorFactor":[
					0.24436430633068085,
					0.24618881940841675,
					0.21545054018497467,
					1
				],
				"metallicFactor":0.4000000059604645,
				"roughnessFactor":0.27216553688049316
			}
		}
	],
	"meshes":[
		{
			"name":"Rock",
			"primitives":[
				{
					"attributes":{
						"POSITION":0,
						"NORMAL":1,
						"TEXCOORD_0":2
					},
					"indices":3,
					"material":0
				},
				{
					"attributes":{
						"POSITION":4,
						"NORMAL":5,
						"TEXCOORD_0":6
					},
					"indices":7,
					"material":1
				}
			]
		}
	],
	"accessors":[
		{
			"bufferView":0,
			"componentType":5126,
			"count":203,
			"max":[
				0.0006774442736059427,
				0.0008516825619153678,
				0.0018739955266937613
			],
			"min":[
				-0.0008715512230992317,
				-0.0006153565482236445,
				-2.289715121150948e-05
			],
			"type":"VEC3"
		},
		{
			"bufferView":1,
			"componentType":5126,
			"count":203,
			"type":"VEC3"
		},
		{
			"bufferView":2,
			"componentType":5126,
			"count":203,
			"type":"VEC2"
		},
		{
			"bufferView":3,
			"componentType":5123,
			"count":486,
			"type":"SCALAR"
		},
		{
			"bufferView":4,
			"componentType":5126,
			"count":204,
			"max":[
				0.00390465185046196,
				0.003549066372215748,
				0.004682083614170551
			],
			"min":[
				6.390176713466644e-05,
				-8.847261779010296e-05,
				-2.128288906533271e-05
			],
			"type":"VEC3"
		},
		{
			"bufferView":5,
			"componentType":5126,
			"count":204,
			"type":"VEC3"
		},
		{
			"bufferView":6,
			"componentType":5126,
			"count":204,
			"type":"VEC2"
		},
		{
			"bufferView":7,
			"componentType":5123,
			"count":486,
			"type":"SCALAR"
		}
	],
	"bufferViews":[
		{
			"buffer":0,
			"byteLength":2436,
			"byteOffset":0,
			"target":34962
		},
		{
			"buffer":0,
			"byteLength":2436,
			"byteOffset":2436,
			"target":34962
		},
		{
			"buffer":0,
			"byteLength":1624,
			"byteOffset":4872,
			"target":34962
		},
		{
			"buffer":0,
			"byteLength":972,
			"byteOffset":6496,
			"target":34963
		},
		{
			"buffer":0,
			"byteLength":2448,
			"byteOffset":7468,
			"target":34962
		},
		{
			"buffer":0,
			"byteLength":2448,
			"byteOffset":9916,
			"target":34962
		},
		{
			"buffer":0,
			"byteLength":1632,
			"byteOffset":12364,
			"target":34962
		},
		{
			"buffer":0,
			"byteLength":972,
			"byteOffset":13996,
			"target":34963
		}
	],
	"buffers":[
		{
			"byteLength":14968,
			"uri":"mdl_rockisland_main_v1.bin"
		}
	]
}
