{
	"asset":{
		"generator":"Khronos glTF Blender I/O v4.0.44",
		"version":"2.0"
	},
	"scene":0,
	"scenes":[
		{
			"name":"Scene",
			"nodes":[
				0
			]
		}
	],
	"nodes":[
		{
			"mesh":0,
			"name":"Key",
			"rotation":[
				-0.70710688829422,
				0,
				0,
				0.7071066498756409
			],
			"scale":[
				100,
				99.99999237060547,
				99.99999237060547
			]
		}
	],
	"materials":[
		{
			"name":"Golden.001",
			"pbrMetallicRoughness":{
				"baseColorFactor":[
					0.37375685572624207,
					0.26921457052230835,
					0.04713868349790573,
					1
				],
				"metallicFactor":0.8111588358879089,
				"roughnessFactor":0.41508710384368896
			}
		}
	],
	"meshes":[
		{
			"name":"Key4.001",
			"primitives":[
				{
					"attributes":{
						"POSITION":0,
						"NORMAL":1
					},
					"indices":2,
					"material":0
				}
			]
		}
	],
	"accessors":[
		{
			"bufferView":0,
			"componentType":5126,
			"count":1382,
			"max":[
				0.00212977291084826,
				0.005388233345001936,
				0.0004587327712215483
			],
			"min":[
				-0.002152582397684455,
				-0.004728049039840698,
				-0.00048705871449783444
			],
			"type":"VEC3"
		},
		{
			"bufferView":1,
			"componentType":5126,
			"count":1382,
			"type":"VEC3"
		},
		{
			"bufferView":2,
			"componentType":5123,
			"count":2064,
			"type":"SCALAR"
		}
	],
	"bufferViews":[
		{
			"buffer":0,
			"byteLength":16584,
			"byteOffset":0,
			"target":34962
		},
		{
			"buffer":0,
			"byteLength":16584,
			"byteOffset":16584,
			"target":34962
		},
		{
			"buffer":0,
			"byteLength":4128,
			"byteOffset":33168,
			"target":34963
		}
	],
	"buffers":[
		{
			"byteLength":37296,
			"uri":"mdl_key_main_v1.bin"
		}
	]
}
