{
	"asset":{
		"generator":"Khronos glTF Blender I/O v4.0.44",
		"version":"2.0"
	},
	"scene":0,
	"scenes":[
		{
			"name":"Scene",
			"nodes":[
				0
			]
		}
	],
	"nodes":[
		{
			"mesh":0,
			"name":"Feather",
			"rotation":[
				0.2723228633403778,
				-0.1831853836774826,
				0.4566407799720764,
				0.8268994092941284
			],
			"scale":[
				0.6003302931785583,
				0.6003302931785583,
				0.6003303527832031
			],
			"translation":[
				-5.048520565032959,
				3.079718828201294,
				16.866901397705078
			]
		}
	],
	"materials":[
		{
			"name":"mat21.001",
			"pbrMetallicRoughness":{
				"metallicFactor":0
			}
		},
		{
			"name":"mat22",
			"pbrMetallicRoughness":{
				"baseColorFactor":[
					0.3499999940395355,
					0.3499999940395355,
					0.3499999940395355,
					1
				],
				"metallicFactor":0
			}
		}
	],
	"meshes":[
		{
			"name":"mesh2147353299",
			"primitives":[
				{
					"attributes":{
						"POSITION":0,
						"NORMAL":1,
						"TEXCOORD_0":2
					},
					"indices":3,
					"material":0
				},
				{
					"attributes":{
						"POSITION":4,
						"NORMAL":5,
						"TEXCOORD_0":6
					},
					"indices":7,
					"material":1
				}
			]
		}
	],
	"accessors":[
		{
			"bufferView":0,
			"componentType":5126,
			"count":292,
			"max":[
				0.21178629994392395,
				0.627610981464386,
				0.19631490111351013
			],
			"min":[
				-0.32481178641319275,
				-0.2770470082759857,
				-0.16860100626945496
			],
			"type":"VEC3"
		},
		{
			"bufferView":1,
			"componentType":5126,
			"count":292,
			"type":"VEC3"
		},
		{
			"bufferView":2,
			"componentType":5126,
			"count":292,
			"type":"VEC2"
		},
		{
			"bufferView":3,
			"componentType":5123,
			"count":648,
			"type":"SCALAR"
		},
		{
			"bufferView":4,
			"componentType":5126,
			"count":524,
			"max":[
				0.21178629994392395,
				0.6319845914840698,
				0.20310500264167786
			],
			"min":[
				-0.32481178641319275,
				-0.5001428127288818,
				-0.18962539732456207
			],
			"type":"VEC3"
		},
		{
			"bufferView":5,
			"componentType":5126,
			"count":524,
			"type":"VEC3"
		},
		{
			"bufferView":6,
			"componentType":5126,
			"count":524,
			"type":"VEC2"
		},
		{
			"bufferView":7,
			"componentType":5123,
			"count":756,
			"type":"SCALAR"
		}
	],
	"bufferViews":[
		{
			"buffer":0,
			"byteLength":3504,
			"byteOffset":0,
			"target":34962
		},
		{
			"buffer":0,
			"byteLength":3504,
			"byteOffset":3504,
			"target":34962
		},
		{
			"buffer":0,
			"byteLength":2336,
			"byteOffset":7008,
			"target":34962
		},
		{
			"buffer":0,
			"byteLength":1296,
			"byteOffset":9344,
			"target":34963
		},
		{
			"buffer":0,
			"byteLength":6288,
			"byteOffset":10640,
			"target":34962
		},
		{
			"buffer":0,
			"byteLength":6288,
			"byteOffset":16928,
			"target":34962
		},
		{
			"buffer":0,
			"byteLength":4192,
			"byteOffset":23216,
			"target":34962
		},
		{
			"buffer":0,
			"byteLength":1512,
			"byteOffset":27408,
			"target":34963
		}
	],
	"buffers":[
		{
			"byteLength":28920,
			"uri":"mdl_feather_main_v2.bin"
		}
	]
}
