{
  "accessors": [
    {
      "name": "Cylinder004_1_0_positions",
      "componentType": 5126,
      "count": 263,
      "min": [
        -1506088.25,
        -399296.875,
        699974.375
      ],
      "max": [
        -1215110.375,
        -355521.6875,
        991379.5
      ],
      "type": "VEC3",
      "bufferView": 0,
      "byteOffset": 0
    },
    {
      "name": "Cylinder004_1_0_normals",
      "componentType": 5126,
      "count": 263,
      "min": [
        -0.994139552116394,
        -1,
        -0.9985353946685791
      ],
      "max": [
        1,
        1,
        0.9985353946685791
      ],
      "type": "VEC3",
      "bufferView": 1,
      "byteOffset": 0
    },
    {
      "name": "Cylinder004_1_0_texcoords",
      "componentType": 5126,
      "count": 263,
      "min": [
        0.000699999975040555,
        0
      ],
      "max": [
        1.0259000062942505,
        1
      ],
      "type": "VEC2",
      "bufferView": 2,
      "byteOffset": 0
    },
    {
      "name": "Cylinder004_1_0_indices",
      "componentType": 5123,
      "count": 603,
      "min": [
        0
      ],
      "max": [
        262
      ],
      "type": "SCALAR",
      "bufferView": 3,
      "byteOffset": 0
    },
    {
      "name": "Cylinder004_1_1_positions",
      "componentType": 5126,
      "count": 29,
      "min": [
        -1496756.125,
        -361895.84375,
        709347.625
      ],
      "max": [
        -1224497.5,
        -361895.84375,
        982006.25
      ],
      "type": "VEC3",
      "bufferView": 0,
      "byteOffset": 3156
    },
    {
      "name": "Cylinder004_1_1_normals",
      "componentType": 5126,
      "count": 29,
      "min": [
        0,
        1,
        0
      ],
      "max": [
        0,
        1,
        0
      ],
      "type": "VEC3",
      "bufferView": 1,
      "byteOffset": 3156
    },
    {
      "name": "Cylinder004_1_1_texcoords",
      "componentType": 5126,
      "count": 29,
      "min": [
        0.000699999975040555,
        0
      ],
      "max": [
        0.9993000030517578,
        0.9970999956130981
      ],
      "type": "VEC2",
      "bufferView": 2,
      "byteOffset": 2104
    },
    {
      "name": "Cylinder004_1_1_indices",
      "componentType": 5123,
      "count": 81,
      "min": [
        0
      ],
      "max": [
        28
      ],
      "type": "SCALAR",
      "bufferView": 3,
      "byteOffset": 1208
    },
    {
      "name": "Cylinder005_1_0_positions",
      "componentType": 5126,
      "count": 11262,
      "min": [
        -1508668.75,
        -400648.40625,
        696313.5
      ],
      "max": [
        -1211853.25,
        58848.46875,
        993545
      ],
      "type": "VEC3",
      "bufferView": 0,
      "byteOffset": 3504
    },
    {
      "name": "Cylinder005_1_0_normals",
      "componentType": 5126,
      "count": 11262,
      "min": [
        -1,
        -1,
        -1
      ],
      "max": [
        1,
        1,
        1
      ],
      "type": "VEC3",
      "bufferView": 1,
      "byteOffset": 3504
    },
    {
      "name": "Cylinder005_1_0_texcoords",
      "componentType": 5126,
      "count": 11262,
      "min": [
        0.000699999975040555,
        0
      ],
      "max": [
        1.0259000062942505,
        1
      ],
      "type": "VEC2",
      "bufferView": 2,
      "byteOffset": 2336
    },
    {
      "name": "Cylinder005_1_0_indices",
      "componentType": 5123,
      "count": 19140,
      "min": [
        0
      ],
      "max": [
        11261
      ],
      "type": "SCALAR",
      "bufferView": 3,
      "byteOffset": 1372
    },
    {
      "name": "Cylinder006_1_0_positions",
      "componentType": 5126,
      "count": 418,
      "min": [
        -1382535,
        55223.71875,
        825532.0625
      ],
      "max": [
        -1348416.5,
        161694.203125,
        855937.75
      ],
      "type": "VEC3",
      "bufferView": 0,
      "byteOffset": 138648
    },
    {
      "name": "Cylinder006_1_0_normals",
      "componentType": 5126,
      "count": 418,
      "min": [
        -0.9947744011878967,
        -1,
        -0.9988424181938171
      ],
      "max": [
        0.9999819993972778,
        0.9908245801925659,
        0.9981923699378967
      ],
      "type": "VEC3",
      "bufferView": 1,
      "byteOffset": 138648
    },
    {
      "name": "Cylinder006_1_0_texcoords",
      "componentType": 5126,
      "count": 418,
      "min": [
        0.000699999975040555,
        0
      ],
      "max": [
        1.0259000062942505,
        1
      ],
      "type": "VEC2",
      "bufferView": 2,
      "byteOffset": 92432
    },
    {
      "name": "Cylinder006_1_0_indices",
      "componentType": 5123,
      "count": 2076,
      "min": [
        0
      ],
      "max": [
        417
      ],
      "type": "SCALAR",
      "bufferView": 3,
      "byteOffset": 39652
    }
  ],
  "asset": {
    "generator": "obj2gltf",
    "version": "2.0"
  },
  "buffers": [
    {
      "name": "mdl_birdcage_main_v1",
      "byteLength": 426912,
      "uri": "data:application/octet-stream;base64,"
    }
  ],
  "bufferViews": [
    {
      "name": "bufferView_0",
      "buffer": 0,
      "byteLength": 143664,
      "byteOffset": 0,
      "byteStride": 12,
      "target": 34962
    },
    {
      "name": "bufferView_1",
      "buffer": 0,
      "byteLength": 143664,
      "byteOffset": 143664,
      "byteStride": 12,
      "target": 34962
    },
    {
      "name": "bufferView_2",
      "buffer": 0,
      "byteLength": 95776,
      "byteOffset": 287328,
      "byteStride": 8,
      "target": 34962
    },
    {
      "name": "bufferView_3",
      "buffer": 0,
      "byteLength": 43804,
      "byteOffset": 383104,
      "target": 34963
    }
  ],
  "materials": [
    {
      "name": "_crayfishdiffuse",
      "pbrMetallicRoughness": {
        "baseColorFactor": [
          0.0118,
          0.0118,
          0.0118,
          1
        ],
        "metallicFactor": 0,
        "roughnessFactor": 0.97
      },
      "emissiveFactor": [
        0,
        0,
        0
      ],
      "alphaMode": "OPAQUE",
      "doubleSided": false
    },
    {
      "name": "02___Default",
      "pbrMetallicRoughness": {
        "baseColorFactor": [
          0.451,
          0.3216,
          0.2784,
          1
        ],
        "metallicFactor": 0,
        "roughnessFactor": 0.99
      },
      "emissiveFactor": [
        0,
        0,
        0
      ],
      "alphaMode": "OPAQUE",
      "doubleSided": false
    }
  ],
  "meshes": [
    {
      "name": "Cylinder004_1",
      "primitives": [
        {
          "attributes": {
            "POSITION": 0,
            "NORMAL": 1,
            "TEXCOORD_0": 2
          },
          "indices": 3,
          "material": 0,
          "mode": 4
        },
        {
          "attributes": {
            "POSITION": 4,
            "NORMAL": 5,
            "TEXCOORD_0": 6
          },
          "indices": 7,
          "material": 1,
          "mode": 4
        }
      ]
    },
    {
      "name": "Cylinder005_1",
      "primitives": [
        {
          "attributes": {
            "POSITION": 8,
            "NORMAL": 9,
            "TEXCOORD_0": 10
          },
          "indices": 11,
          "material": 0,
          "mode": 4
        }
      ]
    },
    {
      "name": "Cylinder006_1",
      "primitives": [
        {
          "attributes": {
            "POSITION": 12,
            "NORMAL": 13,
            "TEXCOORD_0": 14
          },
          "indices": 15,
          "material": 1,
          "mode": 4
        }
      ]
    }
  ],
  "nodes": [
    {
      "name": "Cylinder004",
      "mesh": 0
    },
    {
      "name": "Cylinder005",
      "mesh": 1
    },
    {
      "name": "Cylinder006",
      "mesh": 2
    }
  ],
  "scene": 0,
  "scenes": [
    {
      "nodes": [
        0,
        1,
        2
      ]
    }
  ]
}
