{
	"asset":{
		"generator":"Khronos glTF Blender I/O v4.0.44",
		"version":"2.0"
	},
	"scene":0,
	"scenes":[
		{
			"name":"Scene",
			"nodes":[
				0
			]
		}
	],
	"nodes":[
		{
			"mesh":0,
			"name":"Heart",
			"scale":[
				44.926513671875,
				44.926513671875,
				44.926513671875
			],
			"translation":[
				-5.588062763214111,
				3.7670836448669434,
				17.003280639648438
			]
		}
	],
	"materials":[
		{
			"name":"Red",
			"pbrMetallicRoughness":{
				"baseColorFactor":[
					0.3005959689617157,
					0.0282660610973835,
					0.05466474965214729,
					1
				],
				"metallicFactor":0.4000000059604645,
				"roughnessFactor":0.41508710384368896
			}
		}
	],
	"meshes":[
		{
			"name":"Heart_Full",
			"primitives":[
				{
					"attributes":{
						"POSITION":0,
						"NORMAL":1
					},
					"indices":2,
					"material":0
				}
			]
		}
	],
	"accessors":[
		{
			"bufferView":0,
			"componentType":5126,
			"count":472,
			"max":[
				0.004856949672102928,
				0.002864175708964467,
				0.0028641759417951107
			],
			"min":[
				-0.004856949672102928,
				-0.002864175708964467,
				-0.005192856770008802
			],
			"type":"VEC3"
		},
		{
			"bufferView":1,
			"componentType":5126,
			"count":472,
			"type":"VEC3"
		},
		{
			"bufferView":2,
			"componentType":5123,
			"count":480,
			"type":"SCALAR"
		}
	],
	"bufferViews":[
		{
			"buffer":0,
			"byteLength":5664,
			"byteOffset":0,
			"target":34962
		},
		{
			"buffer":0,
			"byteLength":5664,
			"byteOffset":5664,
			"target":34962
		},
		{
			"buffer":0,
			"byteLength":960,
			"byteOffset":11328,
			"target":34963
		}
	],
	"buffers":[
		{
			"byteLength":12288,
			"uri":"mdl_heart_main_v2.bin"
		}
	]
}
