{
  "accessors": [
    {
      "name": "Spline_sweep-Mesh_0_positions",
      "componentType": 5126,
      "count": 357,
      "min": [
        -42.68128967285156,
        45.54768753051758,
        -10.004213333129883
      ],
      "max": [
        66.2256088256836,
        228.9304656982422,
        10.004213333129883
      ],
      "type": "VEC3",
      "bufferView": 0,
      "byteOffset": 0
    },
    {
      "name": "Spline_sweep-Mesh_0_texcoords",
      "componentType": 5126,
      "count": 357,
      "min": [
        0,
        0
      ],
      "max": [
        1,
        1
      ],
      "type": "VEC2",
      "bufferView": 1,
      "byteOffset": 0
    },
    {
      "name": "Spline_sweep-Mesh_0_indices",
      "componentType": 5123,
      "count": 1920,
      "min": [
        0
      ],
      "max": [
        356
      ],
      "type": "SCALAR",
      "bufferView": 2,
      "byteOffset": 0
    },
    {
      "name": "Capsule-Mesh_0_positions",
      "componentType": 5126,
      "count": 299,
      "min": [
        -50,
        0,
        -50
      ],
      "max": [
        50,
        87.5,
        50
      ],
      "type": "VEC3",
      "bufferView": 0,
      "byteOffset": 4284
    },
    {
      "name": "Capsule-Mesh_0_texcoords",
      "componentType": 5126,
      "count": 299,
      "min": [
        0,
        0
      ],
      "max": [
        1,
        0.45132917165756226
      ],
      "type": "VEC2",
      "bufferView": 1,
      "byteOffset": 2856
    },
    {
      "name": "Capsule-Mesh_0_indices",
      "componentType": 5123,
      "count": 1512,
      "min": [
        0
      ],
      "max": [
        298
      ],
      "type": "SCALAR",
      "bufferView": 2,
      "byteOffset": 3840
    }
  ],
  "asset": {
    "generator": "obj2gltf",
    "version": "2.0"
  },
  "buffers": [
    {
      "name": "mdl_piratehook1_main_v1",
      "byteLength": 19984,
      "uri": "data:application/octet-stream;base64,"
    }
  ],
  "bufferViews": [
    {
      "name": "bufferView_0",
      "buffer": 0,
      "byteLength": 7872,
      "byteOffset": 0,
      "byteStride": 12,
      "target": 34962
    },
    {
      "name": "bufferView_1",
      "buffer": 0,
      "byteLength": 5248,
      "byteOffset": 7872,
      "byteStride": 8,
      "target": 34962
    },
    {
      "name": "bufferView_2",
      "buffer": 0,
      "byteLength": 6864,
      "byteOffset": 13120,
      "target": 34963
    }
  ],
  "materials": [
    {
      "name": "default",
      "pbrMetallicRoughness": {
        "baseColorFactor": [
          1,
          1,
          1,
          1
        ],
        "metallicFactor": 0,
        "roughnessFactor": 1
      },
      "emissiveFactor": [
        0,
        0,
        0
      ],
      "alphaMode": "OPAQUE",
      "doubleSided": false
    },
    {
      "name": "Mat",
      "pbrMetallicRoughness": {
        "baseColorFactor": [
          0.87,
          0.62,
          0.16,
          1
        ],
        "metallicFactor": 0,
        "roughnessFactor": 0.95
      },
      "emissiveFactor": [
        0,
        0,
        0
      ],
      "alphaMode": "OPAQUE",
      "doubleSided": false
    }
  ],
  "meshes": [
    {
      "name": "Spline_sweep-Mesh",
      "primitives": [
        {
          "attributes": {
            "POSITION": 0,
            "TEXCOORD_0": 1
          },
          "indices": 2,
          "material": 0,
          "mode": 4
        }
      ]
    },
    {
      "name": "Capsule-Mesh",
      "primitives": [
        {
          "attributes": {
            "POSITION": 3,
            "TEXCOORD_0": 4
          },
          "indices": 5,
          "material": 1,
          "mode": 4
        }
      ]
    }
  ],
  "nodes": [
    {
      "name": "Spline_sweep",
      "mesh": 0
    },
    {
      "name": "Capsule",
      "mesh": 1
    }
  ],
  "scene": 0,
  "scenes": [
    {
      "nodes": [
        0,
        1
      ]
    }
  ]
}
