{
  "asset": {
    "generator": "FBX2glTF v0.9.7",
    "version": "2.0"
  },
  "scene": 0,
  "buffers": [
    {
      "name": "mdl_rock2_main_v1",
      "byteLength": 28752,
      "uri": "data:application/octet-stream;base64,"
    }
  ],
  "bufferViews": [
    {
      "buffer": 0,
      "byteLength": 3792,
      "byteOffset": 0,
      "target": 34963
    },
    {
      "buffer": 0,
      "byteLength": 9360,
      "byteOffset": 3792,
      "target": 34962,
      "byteStride": 12
    },
    {
      "buffer": 0,
      "byteLength": 9360,
      "byteOffset": 13152,
      "target": 34962,
      "byteStride": 12
    },
    {
      "buffer": 0,
      "byteLength": 6240,
      "byteOffset": 22512,
      "target": 34962,
      "byteStride": 8
    }
  ],
  "scenes": [
    {
      "name": "Root Scene",
      "nodes": [
        0
      ]
    }
  ],
  "accessors": [
    {
      "componentType": 5123,
      "type": "SCALAR",
      "count": 1896,
      "bufferView": 0,
      "byteOffset": 0
    },
    {
      "componentType": 5126,
      "type": "VEC3",
      "count": 780,
      "bufferView": 1,
      "byteOffset": 0,
      "min": [
        -0.00261657196097076,
        -0.00370368361473083,
        -0.000177729889401235
      ],
      "max": [
        0.00357212917879224,
        0.00327383098192513,
        0.00548563711345196
      ]
    },
    {
      "componentType": 5126,
      "type": "VEC3",
      "count": 780,
      "bufferView": 2,
      "byteOffset": 0
    },
    {
      "componentType": 5126,
      "type": "VEC2",
      "count": 780,
      "bufferView": 3,
      "byteOffset": 0
    }
  ],
  "samplers": [],
  "materials": [
    {
      "name": "Stone",
      "alphaMode": "OPAQUE",
      "extras": {
        "fromFBX": {
          "shadingModel": "Phong",
          "isTruePBR": false
        }
      },
      "pbrMetallicRoughness": {
        "baseColorFactor": [
          0.244364306330681,
          0.246188819408417,
          0.215450540184975,
          1
        ],
        "metallicFactor": 0.400000005960464,
        "roughnessFactor": 0.272165536880493
      },
      "emissiveFactor": [
        0,
        0,
        0
      ],
      "doubleSided": false
    }
  ],
  "meshes": [
    {
      "name": "Resource_Rock_1",
      "primitives": [
        {
          "material": 0,
          "mode": 4,
          "attributes": {
            "NORMAL": 2,
            "POSITION": 1,
            "TEXCOORD_0": 3
          },
          "indices": 0
        }
      ]
    }
  ],
  "nodes": [
    {
      "name": "RootNode",
      "translation": [
        0,
        0,
        0
      ],
      "rotation": [
        0,
        0,
        0,
        1
      ],
      "scale": [
        1,
        1,
        1
      ],
      "children": [
        1
      ]
    },
    {
      "name": "Resource_Rock_1",
      "translation": [
        0,
        0,
        0
      ],
      "rotation": [
        -0.707106828689575,
        0,
        0,
        0.707106709480286
      ],
      "scale": [
        100,
        100,
        100
      ],
      "mesh": 0
    }
  ]
}
