{
	"asset":{
		"generator":"Khronos glTF Blender I/O v4.2.70",
		"version":"2.0"
	},
	"scene":0,
	"scenes":[
		{
			"name":"Scene",
			"nodes":[
				1
			]
		}
	],
	"nodes":[
		{
			"mesh":0,
			"name":"Ship_Large",
			"scale":[
				100,
				100,
				100
			]
		},
		{
			"children":[
				0
			],
			"name":"RootNode"
		}
	],
	"materials":[
		{
			"name":"Atlas",
			"pbrMetallicRoughness":{
				"baseColorTexture":{
					"index":0
				},
				"metallicFactor":0.4000000059604645
			}
		}
	],
	"meshes":[
		{
			"name":"Ship_Large",
			"primitives":[
				{
					"attributes":{
						"POSITION":0,
						"NORMAL":1,
						"TEXCOORD_0":2
					},
					"indices":3,
					"material":0
				}
			]
		}
	],
	"textures":[
		{
			"sampler":0,
			"source":0
		}
	],
	"images":[
		{
			"mimeType":"image/png",
			"name":"Atlas_Pirate",
			"uri":"textures/Atlas_Pirate.png"
		}
	],
	"accessors":[
		{
			"bufferView":0,
			"componentType":5126,
			"count":25251,
			"max":[
				0.05915895476937294,
				0.09868122637271881,
				0.026502907276153564
			],
			"min":[
				-0.09517060965299606,
				-0.01610909216105938,
				-0.026502911001443863
			],
			"type":"VEC3"
		},
		{
			"bufferView":1,
			"componentType":5126,
			"count":25251,
			"type":"VEC3"
		},
		{
			"bufferView":2,
			"componentType":5126,
			"count":25251,
			"type":"VEC2"
		},
		{
			"bufferView":3,
			"componentType":5123,
			"count":61896,
			"type":"SCALAR"
		}
	],
	"bufferViews":[
		{
			"buffer":0,
			"byteLength":303012,
			"byteOffset":0,
			"target":34962
		},
		{
			"buffer":0,
			"byteLength":303012,
			"byteOffset":303012,
			"target":34962
		},
		{
			"buffer":0,
			"byteLength":202008,
			"byteOffset":606024,
			"target":34962
		},
		{
			"buffer":0,
			"byteLength":123792,
			"byteOffset":808032,
			"target":34963
		}
	],
	"samplers":[
		{
			"magFilter":9729,
			"minFilter":9987
		}
	],
	"buffers":[
		{
			"byteLength":931824,
			"uri":"testShip.bin"
		}
	]
}
