{
	"asset":{
		"generator":"Khronos glTF Blender I/O v4.0.44",
		"version":"2.0"
	},
	"scene":0,
	"scenes":[
		{
			"name":"Scene",
			"nodes":[
				0
			]
		}
	],
	"nodes":[
		{
			"mesh":0,
			"name":"Candle and Holder",
			"scale":[
				156.90020751953125,
				156.90020751953125,
				156.90020751953125
			],
			"translation":[
				-0.4781627953052521,
				3.4309260845184326,
				12.464357376098633
			]
		}
	],
	"materials":[
		{
			"name":"mat21",
			"pbrMetallicRoughness":{
				"metallicFactor":0.4000000059604645
			}
		},
		{
			"name":"mat17",
			"pbrMetallicRoughness":{
				"baseColorFactor":[
					0.05999999865889549,
					0.10000000149011612,
					0.12999999523162842,
					1
				],
				"metallicFactor":0.4000000059604645
			}
		},
		{
			"name":"mat13",
			"pbrMetallicRoughness":{
				"baseColorFactor":[
					1,
					0.33000001311302185,
					0,
					1
				],
				"metallicFactor":0.4000000059604645
			}
		},
		{
			"name":"mat12",
			"pbrMetallicRoughness":{
				"baseColorFactor":[
					1,
					0.8299999833106995,
					0.03999999910593033,
					1
				],
				"metallicFactor":0.4000000059604645
			}
		}
	],
	"meshes":[
		{
			"name":"Candle",
			"primitives":[
				{
					"attributes":{
						"POSITION":0,
						"NORMAL":1,
						"TEXCOORD_0":2
					},
					"indices":3,
					"material":0
				},
				{
					"attributes":{
						"POSITION":4,
						"NORMAL":5,
						"TEXCOORD_0":6
					},
					"indices":7,
					"material":1
				},
				{
					"attributes":{
						"POSITION":8,
						"NORMAL":9,
						"TEXCOORD_0":10
					},
					"indices":11,
					"material":2
				},
				{
					"attributes":{
						"POSITION":12,
						"NORMAL":13,
						"TEXCOORD_0":14
					},
					"indices":15,
					"material":3
				}
			]
		}
	],
	"accessors":[
		{
			"bufferView":0,
			"componentType":5126,
			"count":242,
			"max":[
				0.0005860303062945604,
				0.0021405729930847883,
				0.0007157644722610712
			],
			"min":[
				-0.0006060375017113984,
				-0.0006027947529219091,
				-0.0004773175751324743
			],
			"type":"VEC3"
		},
		{
			"bufferView":1,
			"componentType":5126,
			"count":242,
			"type":"VEC3"
		},
		{
			"bufferView":2,
			"componentType":5126,
			"count":242,
			"type":"VEC2"
		},
		{
			"bufferView":3,
			"componentType":5123,
			"count":264,
			"type":"SCALAR"
		},
		{
			"bufferView":4,
			"componentType":5126,
			"count":38,
			"max":[
				-0.00010410739196231589,
				0.0024026951286941767,
				4.6527715312549844e-05
			],
			"min":[
				-0.0002157784765586257,
				0.0019640931859612465,
				-3.7752044590888545e-05
			],
			"type":"VEC3"
		},
		{
			"bufferView":5,
			"componentType":5126,
			"count":38,
			"type":"VEC3"
		},
		{
			"bufferView":6,
			"componentType":5126,
			"count":38,
			"type":"VEC2"
		},
		{
			"bufferView":7,
			"componentType":5123,
			"count":42,
			"type":"SCALAR"
		},
		{
			"bufferView":8,
			"componentType":5126,
			"count":286,
			"max":[
				0.0015312121249735355,
				0.0005084521835669875,
				0.0013737169792875648
			],
			"min":[
				-0.0014522112905979156,
				-0.0011948697501793504,
				-0.0013231267221271992
			],
			"type":"VEC3"
		},
		{
			"bufferView":9,
			"componentType":5126,
			"count":286,
			"type":"VEC3"
		},
		{
			"bufferView":10,
			"componentType":5126,
			"count":286,
			"type":"VEC2"
		},
		{
			"bufferView":11,
			"componentType":5123,
			"count":354,
			"type":"SCALAR"
		},
		{
			"bufferView":12,
			"componentType":5126,
			"count":110,
			"max":[
				0.00010811971151269972,
				0.003123334376141429,
				0.00023335461446549743
			],
			"min":[
				-0.0003546614898368716,
				0.0021280681248754263,
				-0.0002488794270902872
			],
			"type":"VEC3"
		},
		{
			"bufferView":13,
			"componentType":5126,
			"count":110,
			"type":"VEC3"
		},
		{
			"bufferView":14,
			"componentType":5126,
			"count":110,
			"type":"VEC2"
		},
		{
			"bufferView":15,
			"componentType":5123,
			"count":114,
			"type":"SCALAR"
		}
	],
	"bufferViews":[
		{
			"buffer":0,
			"byteLength":2904,
			"byteOffset":0,
			"target":34962
		},
		{
			"buffer":0,
			"byteLength":2904,
			"byteOffset":2904,
			"target":34962
		},
		{
			"buffer":0,
			"byteLength":1936,
			"byteOffset":5808,
			"target":34962
		},
		{
			"buffer":0,
			"byteLength":528,
			"byteOffset":7744,
			"target":34963
		},
		{
			"buffer":0,
			"byteLength":456,
			"byteOffset":8272,
			"target":34962
		},
		{
			"buffer":0,
			"byteLength":456,
			"byteOffset":8728,
			"target":34962
		},
		{
			"buffer":0,
			"byteLength":304,
			"byteOffset":9184,
			"target":34962
		},
		{
			"buffer":0,
			"byteLength":84,
			"byteOffset":9488,
			"target":34963
		},
		{
			"buffer":0,
			"byteLength":3432,
			"byteOffset":9572,
			"target":34962
		},
		{
			"buffer":0,
			"byteLength":3432,
			"byteOffset":13004,
			"target":34962
		},
		{
			"buffer":0,
			"byteLength":2288,
			"byteOffset":16436,
			"target":34962
		},
		{
			"buffer":0,
			"byteLength":708,
			"byteOffset":18724,
			"target":34963
		},
		{
			"buffer":0,
			"byteLength":1320,
			"byteOffset":19432,
			"target":34962
		},
		{
			"buffer":0,
			"byteLength":1320,
			"byteOffset":20752,
			"target":34962
		},
		{
			"buffer":0,
			"byteLength":880,
			"byteOffset":22072,
			"target":34962
		},
		{
			"buffer":0,
			"byteLength":228,
			"byteOffset":22952,
			"target":34963
		}
	],
	"buffers":[
		{
			"byteLength":23180,
			"uri":"mdl_candle_main_v2.bin"
		}
	]
}
