{
	"asset":{
		"generator":"Khronos glTF Blender I/O v4.0.44",
		"version":"2.0"
	},
	"scene":0,
	"scenes":[
		{
			"name":"Scene",
			"nodes":[
				0
			]
		}
	],
	"nodes":[
		{
			"mesh":0,
			"name":"Scale",
			"rotation":[
				0,
				1,
				0,
				0
			],
			"scale":[
				-0.23185832798480988,
				-0.010070428252220154,
				-0.23185832798480988
			],
			"translation":[
				-6.372893810272217,
				3.7423152923583984,
				16.971342086791992
			]
		}
	],
	"meshes":[
		{
			"name":"Cylinder.017",
			"primitives":[
				{
					"attributes":{
						"POSITION":0,
						"NORMAL":1,
						"TEXCOORD_0":2
					},
					"indices":3
				}
			]
		}
	],
	"accessors":[
		{
			"bufferView":0,
			"componentType":5126,
			"count":2360,
			"max":[
				4.663936138153076,
				71.49871826171875,
				1.695863962173462
			],
			"min":[
				-4.662546157836914,
				-104.02448272705078,
				-1.6896002292633057
			],
			"type":"VEC3"
		},
		{
			"bufferView":1,
			"componentType":5126,
			"count":2360,
			"type":"VEC3"
		},
		{
			"bufferView":2,
			"componentType":5126,
			"count":2360,
			"type":"VEC2"
		},
		{
			"bufferView":3,
			"componentType":5123,
			"count":6246,
			"type":"SCALAR"
		}
	],
	"bufferViews":[
		{
			"buffer":0,
			"byteLength":28320,
			"byteOffset":0,
			"target":34962
		},
		{
			"buffer":0,
			"byteLength":28320,
			"byteOffset":28320,
			"target":34962
		},
		{
			"buffer":0,
			"byteLength":18880,
			"byteOffset":56640,
			"target":34962
		},
		{
			"buffer":0,
			"byteLength":12492,
			"byteOffset":75520,
			"target":34963
		}
	],
	"buffers":[
		{
			"byteLength":88012,
			"uri":"mdl_scale_placeholder_v1.bin"
		}
	]
}
