{
	"asset":{
		"generator":"Khronos glTF Blender I/O v4.0.44",
		"version":"2.0"
	},
	"scene":0,
	"scenes":[
		{
			"name":"Scene",
			"nodes":[
				0
			]
		}
	],
	"nodes":[
		{
			"mesh":0,
			"name":"Grandfather Clock",
			"rotation":[
				0,
				-0.7071066498756409,
				0,
				0.70710688829422
			],
			"scale":[
				465.3769836425781,
				465.3771057128906,
				465.3769836425781
			],
			"translation":[
				7.542295455932617,
				1.161470890045166,
				9.173306465148926
			]
		}
	],
	"materials":[
		{
			"name":"Material",
			"pbrMetallicRoughness":{
				"metallicFactor":0.4000000059604645,
				"roughnessFactor":0.27216553688049316
			}
		}
	],
	"meshes":[
		{
			"name":"Grandfathers_clock",
			"primitives":[
				{
					"attributes":{
						"POSITION":0,
						"NORMAL":1,
						"TEXCOORD_0":2
					},
					"indices":3,
					"material":0
				}
			]
		}
	],
	"accessors":[
		{
			"bufferView":0,
			"componentType":5126,
			"count":1252,
			"max":[
				0.001519973506219685,
				0.0136411739513278,
				0.0007136264466680586
			],
			"min":[
				-0.0015116115100681782,
				2.8180674807587458e-11,
				-0.001510168076492846
			],
			"type":"VEC3"
		},
		{
			"bufferView":1,
			"componentType":5126,
			"count":1252,
			"type":"VEC3"
		},
		{
			"bufferView":2,
			"componentType":5126,
			"count":1252,
			"type":"VEC2"
		},
		{
			"bufferView":3,
			"componentType":5123,
			"count":1641,
			"type":"SCALAR"
		}
	],
	"bufferViews":[
		{
			"buffer":0,
			"byteLength":15024,
			"byteOffset":0,
			"target":34962
		},
		{
			"buffer":0,
			"byteLength":15024,
			"byteOffset":15024,
			"target":34962
		},
		{
			"buffer":0,
			"byteLength":10016,
			"byteOffset":30048,
			"target":34962
		},
		{
			"buffer":0,
			"byteLength":3282,
			"byteOffset":40064,
			"target":34963
		}
	],
	"buffers":[
		{
			"byteLength":43348,
			"uri":"mdl_grandfatherclock_main_v2.bin"
		}
	]
}
