{
	"asset":{
		"generator":"Khronos glTF Blender I/O v4.0.44",
		"version":"2.0"
	},
	"scene":0,
	"scenes":[
		{
			"name":"Scene",
			"nodes":[
				0
			]
		}
	],
	"nodes":[
		{
			"mesh":0,
			"name":"Padlock",
			"rotation":[
				0.9933324456214905,
				0,
				0.11528495699167252,
				5.9207227565138965e-08
			],
			"scale":[
				58.30411148071289,
				58.304115295410156,
				58.30411911010742
			],
			"translation":[
				-6.070108413696289,
				3.0996458530426025,
				8.157452583312988
			]
		}
	],
	"materials":[
		{
			"name":"Black",
			"pbrMetallicRoughness":{
				"baseColorFactor":[
					0.013909311965107918,
					0.013909311965107918,
					0.013909311965107918,
					1
				],
				"metallicFactor":0.4000000059604645,
				"roughnessFactor":0.41508710384368896
			}
		},
		{
			"name":"Grey",
			"pbrMetallicRoughness":{
				"baseColorFactor":[
					0.05344383791089058,
					0.05344383791089058,
					0.05344383791089058,
					1
				],
				"metallicFactor":0.4000000059604645,
				"roughnessFactor":0.41508710384368896
			}
		}
	],
	"meshes":[
		{
			"name":"Padlock",
			"primitives":[
				{
					"attributes":{
						"POSITION":0,
						"NORMAL":1
					},
					"indices":2,
					"material":0
				},
				{
					"attributes":{
						"POSITION":3,
						"NORMAL":4
					},
					"indices":5,
					"material":1
				}
			]
		}
	],
	"accessors":[
		{
			"bufferView":0,
			"componentType":5126,
			"count":1032,
			"max":[
				0.00250903214327991,
				0.0016348460922017694,
				0.004903414286673069
			],
			"min":[
				-0.0025319091510027647,
				-0.001482327119447291,
				-0.004242260940372944
			],
			"type":"VEC3"
		},
		{
			"bufferView":1,
			"componentType":5126,
			"count":1032,
			"type":"VEC3"
		},
		{
			"bufferView":2,
			"componentType":5123,
			"count":1536,
			"type":"SCALAR"
		},
		{
			"bufferView":3,
			"componentType":5126,
			"count":126,
			"max":[
				0.003090948099270463,
				0.0012153793359175324,
				0.0013845310313627124
			],
			"min":[
				-0.0030622396152466536,
				-0.0011384648969396949,
				-0.0047823041677474976
			],
			"type":"VEC3"
		},
		{
			"bufferView":4,
			"componentType":5126,
			"count":126,
			"type":"VEC3"
		},
		{
			"bufferView":5,
			"componentType":5123,
			"count":216,
			"type":"SCALAR"
		}
	],
	"bufferViews":[
		{
			"buffer":0,
			"byteLength":12384,
			"byteOffset":0,
			"target":34962
		},
		{
			"buffer":0,
			"byteLength":12384,
			"byteOffset":12384,
			"target":34962
		},
		{
			"buffer":0,
			"byteLength":3072,
			"byteOffset":24768,
			"target":34963
		},
		{
			"buffer":0,
			"byteLength":1512,
			"byteOffset":27840,
			"target":34962
		},
		{
			"buffer":0,
			"byteLength":1512,
			"byteOffset":29352,
			"target":34962
		},
		{
			"buffer":0,
			"byteLength":432,
			"byteOffset":30864,
			"target":34963
		}
	],
	"buffers":[
		{
			"byteLength":31296,
			"uri":"mdl_padlock_main_v2.bin"
		}
	]
}
