{
	"asset":{
		"generator":"Khronos glTF Blender I/O v4.0.44",
		"version":"2.0"
	},
	"extensionsUsed":[
		"KHR_texture_transform"
	],
	"extensionsRequired":[
		"KHR_texture_transform"
	],
	"scene":0,
	"scenes":[
		{
			"name":"Scene",
			"nodes":[
				0
			]
		}
	],
	"nodes":[
		{
			"mesh":0,
			"name":"mdl_room_v4_textured"
		}
	],
	"materials":[
		{
			"doubleSided":true,
			"name":"bottom",
			"normalTexture":{
				"extensions":{
					"KHR_texture_transform":{
						"offset":[
							0,
							-2
						],
						"scale":[
							3,
							3
						]
					}
				},
				"index":0
			},
			"pbrMetallicRoughness":{
				"baseColorTexture":{
					"extensions":{
						"KHR_texture_transform":{
							"offset":[
								0,
								-2
							],
							"scale":[
								3,
								3
							]
						}
					},
					"index":1
				},
				"metallicFactor":0,
				"metallicRoughnessTexture":{
					"extensions":{
						"KHR_texture_transform":{
							"offset":[
								0,
								-2
							],
							"scale":[
								3,
								3
							]
						}
					},
					"index":2
				}
			}
		},
		{
			"doubleSided":true,
			"name":"side1",
			"normalTexture":{
				"extensions":{
					"KHR_texture_transform":{
						"offset":[
							0,
							-4
						],
						"scale":[
							5,
							5
						]
					}
				},
				"index":3
			},
			"pbrMetallicRoughness":{
				"baseColorTexture":{
					"extensions":{
						"KHR_texture_transform":{
							"offset":[
								0,
								-4
							],
							"scale":[
								5,
								5
							]
						}
					},
					"index":4
				},
				"metallicFactor":0,
				"metallicRoughnessTexture":{
					"extensions":{
						"KHR_texture_transform":{
							"offset":[
								0,
								-4
							],
							"scale":[
								5,
								5
							]
						}
					},
					"index":5
				}
			}
		},
		{
			"doubleSided":true,
			"name":"top",
			"normalTexture":{
				"extensions":{
					"KHR_texture_transform":{
						"offset":[
							0,
							-5
						],
						"scale":[
							6,
							6
						]
					}
				},
				"index":6
			},
			"pbrMetallicRoughness":{
				"baseColorTexture":{
					"extensions":{
						"KHR_texture_transform":{
							"offset":[
								0,
								-5
							],
							"scale":[
								6,
								6
							]
						}
					},
					"index":7
				},
				"metallicFactor":0,
				"metallicRoughnessTexture":{
					"extensions":{
						"KHR_texture_transform":{
							"offset":[
								0,
								-5
							],
							"scale":[
								6,
								6
							]
						}
					},
					"index":8
				}
			}
		},
		{
			"doubleSided":true,
			"name":"Material.001",
			"pbrMetallicRoughness":{
				"baseColorFactor":[
					0.01908736675977707,
					0.01908736675977707,
					0.01908736675977707,
					1
				],
				"metallicFactor":0.5984252095222473,
				"roughnessFactor":0.6968504190444946
			}
		}
	],
	"meshes":[
		{
			"name":"Cylinder.009",
			"primitives":[
				{
					"attributes":{
						"POSITION":0,
						"NORMAL":1,
						"TEXCOORD_0":2
					},
					"indices":3,
					"material":0
				},
				{
					"attributes":{
						"POSITION":4,
						"NORMAL":5,
						"TEXCOORD_0":6
					},
					"indices":7,
					"material":1
				},
				{
					"attributes":{
						"POSITION":8,
						"NORMAL":9,
						"TEXCOORD_0":10
					},
					"indices":11,
					"material":2
				},
				{
					"attributes":{
						"POSITION":12,
						"NORMAL":13,
						"TEXCOORD_0":14
					},
					"indices":15,
					"material":3
				}
			]
		}
	],
	"textures":[
		{
			"sampler":0,
			"source":0
		},
		{
			"sampler":0,
			"source":1
		},
		{
			"sampler":0,
			"source":2
		},
		{
			"sampler":0,
			"source":3
		},
		{
			"sampler":0,
			"source":1
		},
		{
			"sampler":0,
			"source":4
		},
		{
			"sampler":0,
			"source":3
		},
		{
			"sampler":0,
			"source":1
		},
		{
			"sampler":0,
			"source":4
		}
	],
	"images":[
		{
			"mimeType":"image/png",
			"name":"wood_cabinet_worn_long_nor_gl_1k",
			"uri":"wood_cabinet_worn_long_nor_gl_1k.png"
		},
		{
			"mimeType":"image/jpeg",
			"name":"wood_cabinet_worn_long_diff_1k",
			"uri":"wood_cabinet_worn_long_diff_1k.jpg"
		},
		{
			"mimeType":"image/png",
			"name":"wood_cabinet_worn_long_rough_1k",
			"uri":"wood_cabinet_worn_long_rough_1k.png"
		},
		{
			"mimeType":"image/png",
			"name":"wood_cabinet_worn_long_nor_gl_1k.exr",
			"uri":"wood_cabinet_worn_long_nor_gl_1k_exr.png"
		},
		{
			"mimeType":"image/png",
			"name":"wood_cabinet_worn_long_rough_1k.exr",
			"uri":"wood_cabinet_worn_long_rough_1k_exr.png"
		}
	],
	"accessors":[
		{
			"bufferView":0,
			"componentType":5126,
			"count":2121,
			"max":[
				5.518951892852783,
				7.151571273803711,
				8.877898216247559
			],
			"min":[
				-5.518952369689941,
				-4.476504325866699,
				-8.058863639831543
			],
			"type":"VEC3"
		},
		{
			"bufferView":1,
			"componentType":5126,
			"count":2121,
			"type":"VEC3"
		},
		{
			"bufferView":2,
			"componentType":5126,
			"count":2121,
			"type":"VEC2"
		},
		{
			"bufferView":3,
			"componentType":5123,
			"count":5571,
			"type":"SCALAR"
		},
		{
			"bufferView":4,
			"componentType":5126,
			"count":153,
			"max":[
				5.315721035003662,
				6.964053153991699,
				8.605484008789062
			],
			"min":[
				-5.31572151184082,
				0.005593299865722656,
				-7.718010902404785
			],
			"type":"VEC3"
		},
		{
			"bufferView":5,
			"componentType":5126,
			"count":153,
			"type":"VEC3"
		},
		{
			"bufferView":6,
			"componentType":5126,
			"count":153,
			"type":"VEC2"
		},
		{
			"bufferView":7,
			"componentType":5123,
			"count":471,
			"type":"SCALAR"
		},
		{
			"bufferView":8,
			"componentType":5126,
			"count":12,
			"max":[
				5.315720558166504,
				6.964053153991699,
				8.605484008789062
			],
			"min":[
				-5.31572151184082,
				6.964052200317383,
				-7.718010902404785
			],
			"type":"VEC3"
		},
		{
			"bufferView":9,
			"componentType":5126,
			"count":12,
			"type":"VEC3"
		},
		{
			"bufferView":10,
			"componentType":5126,
			"count":12,
			"type":"VEC2"
		},
		{
			"bufferView":11,
			"componentType":5123,
			"count":24,
			"type":"SCALAR"
		},
		{
			"bufferView":12,
			"componentType":5126,
			"count":688,
			"max":[
				2.0571341514587402,
				7.151571273803711,
				3.605448007583618
			],
			"min":[
				-2.0571367740631104,
				6.665098667144775,
				-2.71797513961792
			],
			"type":"VEC3"
		},
		{
			"bufferView":13,
			"componentType":5126,
			"count":688,
			"type":"VEC3"
		},
		{
			"bufferView":14,
			"componentType":5126,
			"count":688,
			"type":"VEC2"
		},
		{
			"bufferView":15,
			"componentType":5123,
			"count":1410,
			"type":"SCALAR"
		}
	],
	"bufferViews":[
		{
			"buffer":0,
			"byteLength":25452,
			"byteOffset":0,
			"target":34962
		},
		{
			"buffer":0,
			"byteLength":25452,
			"byteOffset":25452,
			"target":34962
		},
		{
			"buffer":0,
			"byteLength":16968,
			"byteOffset":50904,
			"target":34962
		},
		{
			"buffer":0,
			"byteLength":11142,
			"byteOffset":67872,
			"target":34963
		},
		{
			"buffer":0,
			"byteLength":1836,
			"byteOffset":79016,
			"target":34962
		},
		{
			"buffer":0,
			"byteLength":1836,
			"byteOffset":80852,
			"target":34962
		},
		{
			"buffer":0,
			"byteLength":1224,
			"byteOffset":82688,
			"target":34962
		},
		{
			"buffer":0,
			"byteLength":942,
			"byteOffset":83912,
			"target":34963
		},
		{
			"buffer":0,
			"byteLength":144,
			"byteOffset":84856,
			"target":34962
		},
		{
			"buffer":0,
			"byteLength":144,
			"byteOffset":85000,
			"target":34962
		},
		{
			"buffer":0,
			"byteLength":96,
			"byteOffset":85144,
			"target":34962
		},
		{
			"buffer":0,
			"byteLength":48,
			"byteOffset":85240,
			"target":34963
		},
		{
			"buffer":0,
			"byteLength":8256,
			"byteOffset":85288,
			"target":34962
		},
		{
			"buffer":0,
			"byteLength":8256,
			"byteOffset":93544,
			"target":34962
		},
		{
			"buffer":0,
			"byteLength":5504,
			"byteOffset":101800,
			"target":34962
		},
		{
			"buffer":0,
			"byteLength":2820,
			"byteOffset":107304,
			"target":34963
		}
	],
	"samplers":[
		{
			"magFilter":9729,
			"minFilter":9987
		}
	],
	"buffers":[
		{
			"byteLength":110124,
			"uri":"mdl_room_main_v5.bin"
		}
	]
}
