{
	"asset":{
		"generator":"Khronos glTF Blender I/O v4.0.44",
		"version":"2.0"
	},
	"scene":0,
	"scenes":[
		{
			"name":"Scene",
			"nodes":[
				0
			]
		}
	],
	"nodes":[
		{
			"mesh":0,
			"name":"ChestClosed",
			"rotation":[
				-0.70710688829422,
				0,
				0,
				0.7071066498756409
			],
			"scale":[
				205.04246520996094,
				205.04248046875,
				205.04248046875
			],
			"translation":[
				0.5997611284255981,
				2.2977004051208496,
				7.422482490539551
			]
		}
	],
	"materials":[
		{
			"name":"DarkWood.001",
			"pbrMetallicRoughness":{
				"baseColorFactor":[
					0.09541862457990646,
					0.050624292343854904,
					0.040612827986478806,
					1
				],
				"metallicFactor":0.4000000059604645,
				"roughnessFactor":0.41508710384368896
			}
		},
		{
			"name":"Wood.001",
			"pbrMetallicRoughness":{
				"baseColorFactor":[
					0.16151408851146698,
					0.08318333327770233,
					0.06343164294958115,
					1
				],
				"metallicFactor":0.4000000059604645,
				"roughnessFactor":0.41508710384368896
			}
		},
		{
			"name":"Metal",
			"pbrMetallicRoughness":{
				"baseColorFactor":[
					0.061591800302267075,
					0.054660897701978683,
					0.09194639325141907,
					1
				],
				"metallicFactor":0.4000000059604645,
				"roughnessFactor":0.41508710384368896
			}
		}
	],
	"meshes":[
		{
			"name":"Chest_Top.001",
			"primitives":[
				{
					"attributes":{
						"POSITION":0,
						"NORMAL":1
					},
					"indices":2,
					"material":0
				},
				{
					"attributes":{
						"POSITION":3,
						"NORMAL":4
					},
					"indices":5,
					"material":1
				},
				{
					"attributes":{
						"POSITION":6,
						"NORMAL":7
					},
					"indices":8,
					"material":2
				}
			]
		}
	],
	"accessors":[
		{
			"bufferView":0,
			"componentType":5126,
			"count":1336,
			"max":[
				0.005896589253097773,
				0.00037430040538311005,
				0.0037225810810923576
			],
			"min":[
				-0.00589658971875906,
				-0.0074540055356919765,
				-0.00526238139718771
			],
			"type":"VEC3"
		},
		{
			"bufferView":1,
			"componentType":5126,
			"count":1336,
			"type":"VEC3"
		},
		{
			"bufferView":2,
			"componentType":5123,
			"count":1980,
			"type":"SCALAR"
		},
		{
			"bufferView":3,
			"componentType":5126,
			"count":1904,
			"max":[
				0.005628062877804041,
				0.00021252455189824104,
				0.003530072281137109
			],
			"min":[
				-0.005628063343465328,
				-0.007174969185143709,
				-0.004643668420612812
			],
			"type":"VEC3"
		},
		{
			"bufferView":4,
			"componentType":5126,
			"count":1904,
			"type":"VEC3"
		},
		{
			"bufferView":5,
			"componentType":5123,
			"count":2772,
			"type":"SCALAR"
		},
		{
			"bufferView":6,
			"componentType":5126,
			"count":172,
			"max":[
				0.0006849946221336722,
				-0.0069921184331178665,
				0.00047293398529291153
			],
			"min":[
				-0.0005370083963498473,
				-0.007863402366638184,
				-0.0012260903604328632
			],
			"type":"VEC3"
		},
		{
			"bufferView":7,
			"componentType":5126,
			"count":172,
			"type":"VEC3"
		},
		{
			"bufferView":8,
			"componentType":5123,
			"count":276,
			"type":"SCALAR"
		}
	],
	"bufferViews":[
		{
			"buffer":0,
			"byteLength":16032,
			"byteOffset":0,
			"target":34962
		},
		{
			"buffer":0,
			"byteLength":16032,
			"byteOffset":16032,
			"target":34962
		},
		{
			"buffer":0,
			"byteLength":3960,
			"byteOffset":32064,
			"target":34963
		},
		{
			"buffer":0,
			"byteLength":22848,
			"byteOffset":36024,
			"target":34962
		},
		{
			"buffer":0,
			"byteLength":22848,
			"byteOffset":58872,
			"target":34962
		},
		{
			"buffer":0,
			"byteLength":5544,
			"byteOffset":81720,
			"target":34963
		},
		{
			"buffer":0,
			"byteLength":2064,
			"byteOffset":87264,
			"target":34962
		},
		{
			"buffer":0,
			"byteLength":2064,
			"byteOffset":89328,
			"target":34962
		},
		{
			"buffer":0,
			"byteLength":552,
			"byteOffset":91392,
			"target":34963
		}
	],
	"buffers":[
		{
			"byteLength":91944,
			"uri":"mdl_chest_closed_v1.bin"
		}
	]
}
