{
  "asset": {
    "generator": "FBX2glTF v0.9.7",
    "version": "2.0"
  },
  "scene": 0,
  "buffers": [
    {
      "name": "mdl_candle_main_v1",
      "byteLength": 22936,
      "uri": "data:application/octet-stream;base64,"
    }
  ],
  "bufferViews": [
    {
      "buffer": 0,
      "byteLength": 528,
      "byteOffset": 0,
      "target": 34963
    },
    {
      "buffer": 0,
      "byteLength": 2880,
      "byteOffset": 528,
      "target": 34962,
      "byteStride": 12
    },
    {
      "buffer": 0,
      "byteLength": 2880,
      "byteOffset": 3408,
      "target": 34962,
      "byteStride": 12
    },
    {
      "buffer": 0,
      "byteLength": 1920,
      "byteOffset": 6288,
      "target": 34962,
      "byteStride": 8
    },
    {
      "buffer": 0,
      "byteLength": 84,
      "byteOffset": 8208,
      "target": 34963
    },
    {
      "buffer": 0,
      "byteLength": 456,
      "byteOffset": 8296,
      "target": 34962,
      "byteStride": 12
    },
    {
      "buffer": 0,
      "byteLength": 456,
      "byteOffset": 8752,
      "target": 34962,
      "byteStride": 12
    },
    {
      "buffer": 0,
      "byteLength": 304,
      "byteOffset": 9208,
      "target": 34962,
      "byteStride": 8
    },
    {
      "buffer": 0,
      "byteLength": 708,
      "byteOffset": 9512,
      "target": 34963
    },
    {
      "buffer": 0,
      "byteLength": 3360,
      "byteOffset": 10224,
      "target": 34962,
      "byteStride": 12
    },
    {
      "buffer": 0,
      "byteLength": 3360,
      "byteOffset": 13584,
      "target": 34962,
      "byteStride": 12
    },
    {
      "buffer": 0,
      "byteLength": 2240,
      "byteOffset": 16944,
      "target": 34962,
      "byteStride": 8
    },
    {
      "buffer": 0,
      "byteLength": 228,
      "byteOffset": 19184,
      "target": 34963
    },
    {
      "buffer": 0,
      "byteLength": 1320,
      "byteOffset": 19416,
      "target": 34962,
      "byteStride": 12
    },
    {
      "buffer": 0,
      "byteLength": 1320,
      "byteOffset": 20736,
      "target": 34962,
      "byteStride": 12
    },
    {
      "buffer": 0,
      "byteLength": 880,
      "byteOffset": 22056,
      "target": 34962,
      "byteStride": 8
    }
  ],
  "scenes": [
    {
      "name": "Root Scene",
      "nodes": [
        0
      ]
    }
  ],
  "accessors": [
    {
      "componentType": 5123,
      "type": "SCALAR",
      "count": 264,
      "bufferView": 0,
      "byteOffset": 0
    },
    {
      "componentType": 5126,
      "type": "VEC3",
      "count": 240,
      "bufferView": 1,
      "byteOffset": 0,
      "min": [
        -0.000606037501711398,
        -0.000602794752921909,
        -0.000477317575132474
      ],
      "max": [
        0.00058603030629456,
        0.00214057299308479,
        0.000715764472261071
      ]
    },
    {
      "componentType": 5126,
      "type": "VEC3",
      "count": 240,
      "bufferView": 2,
      "byteOffset": 0
    },
    {
      "componentType": 5126,
      "type": "VEC2",
      "count": 240,
      "bufferView": 3,
      "byteOffset": 0
    },
    {
      "componentType": 5123,
      "type": "SCALAR",
      "count": 42,
      "bufferView": 4,
      "byteOffset": 0
    },
    {
      "componentType": 5126,
      "type": "VEC3",
      "count": 38,
      "bufferView": 5,
      "byteOffset": 0,
      "min": [
        -0.000215778476558626,
        0.00196409318596125,
        -0.0000377520445908885
      ],
      "max": [
        -0.000104107391962316,
        0.00240269512869418,
        0.0000465277153125498
      ]
    },
    {
      "componentType": 5126,
      "type": "VEC3",
      "count": 38,
      "bufferView": 6,
      "byteOffset": 0
    },
    {
      "componentType": 5126,
      "type": "VEC2",
      "count": 38,
      "bufferView": 7,
      "byteOffset": 0
    },
    {
      "componentType": 5123,
      "type": "SCALAR",
      "count": 354,
      "bufferView": 8,
      "byteOffset": 0
    },
    {
      "componentType": 5126,
      "type": "VEC3",
      "count": 280,
      "bufferView": 9,
      "byteOffset": 0,
      "min": [
        -0.00145221129059792,
        -0.00119486975017935,
        -0.0013231267221272
      ],
      "max": [
        0.00153121212497354,
        0.000508452183566988,
        0.00137371697928756
      ]
    },
    {
      "componentType": 5126,
      "type": "VEC3",
      "count": 280,
      "bufferView": 10,
      "byteOffset": 0
    },
    {
      "componentType": 5126,
      "type": "VEC2",
      "count": 280,
      "bufferView": 11,
      "byteOffset": 0
    },
    {
      "componentType": 5123,
      "type": "SCALAR",
      "count": 114,
      "bufferView": 12,
      "byteOffset": 0
    },
    {
      "componentType": 5126,
      "type": "VEC3",
      "count": 110,
      "bufferView": 13,
      "byteOffset": 0,
      "min": [
        -0.000354661489836872,
        0.00212806812487543,
        -0.000248879427090287
      ],
      "max": [
        0.0001081197115127,
        0.00312333437614143,
        0.000233354614465497
      ]
    },
    {
      "componentType": 5126,
      "type": "VEC3",
      "count": 110,
      "bufferView": 14,
      "byteOffset": 0
    },
    {
      "componentType": 5126,
      "type": "VEC2",
      "count": 110,
      "bufferView": 15,
      "byteOffset": 0
    }
  ],
  "samplers": [],
  "materials": [
    {
      "name": "mat21",
      "alphaMode": "OPAQUE",
      "extras": {
        "fromFBX": {
          "shadingModel": "Phong",
          "isTruePBR": false
        }
      },
      "pbrMetallicRoughness": {
        "baseColorFactor": [
          1,
          1,
          1,
          1
        ],
        "metallicFactor": 0.400000005960464,
        "roughnessFactor": 1
      },
      "emissiveFactor": [
        0,
        0,
        0
      ],
      "doubleSided": false
    },
    {
      "name": "mat17",
      "alphaMode": "OPAQUE",
      "extras": {
        "fromFBX": {
          "shadingModel": "Phong",
          "isTruePBR": false
        }
      },
      "pbrMetallicRoughness": {
        "baseColorFactor": [
          0.0599999986588955,
          0.100000001490116,
          0.129999995231628,
          1
        ],
        "metallicFactor": 0.400000005960464,
        "roughnessFactor": 1
      },
      "emissiveFactor": [
        0,
        0,
        0
      ],
      "doubleSided": false
    },
    {
      "name": "mat13",
      "alphaMode": "OPAQUE",
      "extras": {
        "fromFBX": {
          "shadingModel": "Phong",
          "isTruePBR": false
        }
      },
      "pbrMetallicRoughness": {
        "baseColorFactor": [
          1,
          0.330000013113022,
          0,
          1
        ],
        "metallicFactor": 0.400000005960464,
        "roughnessFactor": 1
      },
      "emissiveFactor": [
        0,
        0,
        0
      ],
      "doubleSided": false
    },
    {
      "name": "mat12",
      "alphaMode": "OPAQUE",
      "extras": {
        "fromFBX": {
          "shadingModel": "Phong",
          "isTruePBR": false
        }
      },
      "pbrMetallicRoughness": {
        "baseColorFactor": [
          1,
          0.829999983310699,
          0.0399999991059303,
          1
        ],
        "metallicFactor": 0.400000005960464,
        "roughnessFactor": 1
      },
      "emissiveFactor": [
        0,
        0,
        0
      ],
      "doubleSided": false
    }
  ],
  "meshes": [
    {
      "name": "Candle",
      "primitives": [
        {
          "material": 0,
          "mode": 4,
          "attributes": {
            "NORMAL": 2,
            "POSITION": 1,
            "TEXCOORD_0": 3
          },
          "indices": 0
        },
        {
          "material": 1,
          "mode": 4,
          "attributes": {
            "NORMAL": 6,
            "POSITION": 5,
            "TEXCOORD_0": 7
          },
          "indices": 4
        },
        {
          "material": 2,
          "mode": 4,
          "attributes": {
            "NORMAL": 10,
            "POSITION": 9,
            "TEXCOORD_0": 11
          },
          "indices": 8
        },
        {
          "material": 3,
          "mode": 4,
          "attributes": {
            "NORMAL": 14,
            "POSITION": 13,
            "TEXCOORD_0": 15
          },
          "indices": 12
        }
      ]
    }
  ],
  "nodes": [
    {
      "name": "RootNode",
      "translation": [
        0,
        0,
        0
      ],
      "rotation": [
        0,
        0,
        0,
        1
      ],
      "scale": [
        1,
        1,
        1
      ],
      "children": [
        1
      ]
    },
    {
      "name": "Candle",
      "translation": [
        0,
        0,
        0
      ],
      "rotation": [
        2.1855694143369e-8,
        0,
        0,
        1
      ],
      "scale": [
        100,
        100,
        100
      ],
      "mesh": 0
    }
  ]
}
