{
  "asset": {
    "generator": "FBX2glTF v0.9.7",
    "version": "2.0"
  },
  "scene": 0,
  "buffers": [
    {
      "name": "mdl_chest2_main_v1",
      "byteLength": 90168,
      "uri": "data:application/octet-stream;base64,"
    }
  ],
  "bufferViews": [
    {
      "buffer": 0,
      "byteLength": 2064,
      "byteOffset": 0,
      "target": 34963
    },
    {
      "buffer": 0,
      "byteLength": 8256,
      "byteOffset": 2064,
      "target": 34962,
      "byteStride": 12
    },
    {
      "buffer": 0,
      "byteLength": 8256,
      "byteOffset": 10320,
      "target": 34962,
      "byteStride": 12
    },
    {
      "buffer": 0,
      "byteLength": 1896,
      "byteOffset": 18576,
      "target": 34963
    },
    {
      "buffer": 0,
      "byteLength": 7560,
      "byteOffset": 20472,
      "target": 34962,
      "byteStride": 12
    },
    {
      "buffer": 0,
      "byteLength": 7560,
      "byteOffset": 28032,
      "target": 34962,
      "byteStride": 12
    },
    {
      "buffer": 0,
      "byteLength": 2160,
      "byteOffset": 35592,
      "target": 34963
    },
    {
      "buffer": 0,
      "byteLength": 8640,
      "byteOffset": 37752,
      "target": 34962,
      "byteStride": 12
    },
    {
      "buffer": 0,
      "byteLength": 8640,
      "byteOffset": 46392,
      "target": 34962,
      "byteStride": 12
    },
    {
      "buffer": 0,
      "byteLength": 3384,
      "byteOffset": 55032,
      "target": 34963
    },
    {
      "buffer": 0,
      "byteLength": 13536,
      "byteOffset": 58416,
      "target": 34962,
      "byteStride": 12
    },
    {
      "buffer": 0,
      "byteLength": 13536,
      "byteOffset": 71952,
      "target": 34962,
      "byteStride": 12
    },
    {
      "buffer": 0,
      "byteLength": 552,
      "byteOffset": 85488,
      "target": 34963
    },
    {
      "buffer": 0,
      "byteLength": 2064,
      "byteOffset": 86040,
      "target": 34962,
      "byteStride": 12
    },
    {
      "buffer": 0,
      "byteLength": 2064,
      "byteOffset": 88104,
      "target": 34962,
      "byteStride": 12
    }
  ],
  "scenes": [
    {
      "name": "Root Scene",
      "nodes": [
        0
      ]
    }
  ],
  "accessors": [
    {
      "componentType": 5123,
      "type": "SCALAR",
      "count": 1032,
      "bufferView": 0,
      "byteOffset": 0
    },
    {
      "componentType": 5126,
      "type": "VEC3",
      "count": 688,
      "bufferView": 1,
      "byteOffset": 0,
      "min": [
        -0.00574159901589155,
        -0.00386610743589699,
        -0.0000132616651171702
      ],
      "max": [
        0.00568398227915168,
        0.00386610743589699,
        0.00537056382745504
      ]
    },
    {
      "componentType": 5126,
      "type": "VEC3",
      "count": 688,
      "bufferView": 2,
      "byteOffset": 0
    },
    {
      "componentType": 5123,
      "type": "SCALAR",
      "count": 948,
      "bufferView": 3,
      "byteOffset": 0
    },
    {
      "componentType": 5126,
      "type": "VEC3",
      "count": 630,
      "bufferView": 4,
      "byteOffset": 0,
      "min": [
        -0.00589658971875906,
        -0.00745400553569198,
        -8.05922217850252e-10
      ],
      "max": [
        0.00589658925309777,
        0.00037430040538311,
        0.00372258108109236
      ]
    },
    {
      "componentType": 5126,
      "type": "VEC3",
      "count": 630,
      "bufferView": 5,
      "byteOffset": 0
    },
    {
      "componentType": 5123,
      "type": "SCALAR",
      "count": 1080,
      "bufferView": 6,
      "byteOffset": 0
    },
    {
      "componentType": 5126,
      "type": "VEC3",
      "count": 720,
      "bufferView": 7,
      "byteOffset": 0,
      "min": [
        -0.00550361955538392,
        -0.00364477932453156,
        0.000605451408773661
      ],
      "max": [
        0.00535740191116929,
        0.00374271348118782,
        0.00491330120712519
      ]
    },
    {
      "componentType": 5126,
      "type": "VEC3",
      "count": 720,
      "bufferView": 8,
      "byteOffset": 0
    },
    {
      "componentType": 5123,
      "type": "SCALAR",
      "count": 1692,
      "bufferView": 9,
      "byteOffset": 0
    },
    {
      "componentType": 5126,
      "type": "VEC3",
      "count": 1128,
      "bufferView": 10,
      "byteOffset": 0,
      "min": [
        -0.00562806334346533,
        -0.00698881968855858,
        0.000262367102550343
      ],
      "max": [
        0.00562806287780404,
        -0.0000908856527530588,
        0.00353007228113711
      ]
    },
    {
      "componentType": 5126,
      "type": "VEC3",
      "count": 1128,
      "bufferView": 11,
      "byteOffset": 0
    },
    {
      "componentType": 5123,
      "type": "SCALAR",
      "count": 276,
      "bufferView": 12,
      "byteOffset": 0
    },
    {
      "componentType": 5126,
      "type": "VEC3",
      "count": 172,
      "bufferView": 13,
      "byteOffset": 0,
      "min": [
        -0.000543093599844724,
        -0.00433321297168732,
        0.00402302900329232
      ],
      "max": [
        0.000678909302223474,
        -0.00346192833967507,
        0.0057220533490181
      ]
    },
    {
      "componentType": 5126,
      "type": "VEC3",
      "count": 172,
      "bufferView": 14,
      "byteOffset": 0
    }
  ],
  "samplers": [],
  "materials": [
    {
      "name": "DarkWood",
      "alphaMode": "OPAQUE",
      "extras": {
        "fromFBX": {
          "shadingModel": "Phong",
          "isTruePBR": false
        }
      },
      "pbrMetallicRoughness": {
        "baseColorFactor": [
          0.0954186245799065,
          0.0506242923438549,
          0.0406128279864788,
          1
        ],
        "metallicFactor": 0.400000005960464,
        "roughnessFactor": 0.415087103843689
      },
      "emissiveFactor": [
        0,
        0,
        0
      ],
      "doubleSided": false
    },
    {
      "name": "Wood",
      "alphaMode": "OPAQUE",
      "extras": {
        "fromFBX": {
          "shadingModel": "Phong",
          "isTruePBR": false
        }
      },
      "pbrMetallicRoughness": {
        "baseColorFactor": [
          0.161514088511467,
          0.0831833332777023,
          0.0634316429495811,
          1
        ],
        "metallicFactor": 0.400000005960464,
        "roughnessFactor": 0.415087103843689
      },
      "emissiveFactor": [
        0,
        0,
        0
      ],
      "doubleSided": false
    },
    {
      "name": "Metal",
      "alphaMode": "OPAQUE",
      "extras": {
        "fromFBX": {
          "shadingModel": "Phong",
          "isTruePBR": false
        }
      },
      "pbrMetallicRoughness": {
        "baseColorFactor": [
          0.0615918003022671,
          0.0546608977019787,
          0.0919463932514191,
          1
        ],
        "metallicFactor": 0.400000005960464,
        "roughnessFactor": 0.415087103843689
      },
      "emissiveFactor": [
        0,
        0,
        0
      ],
      "doubleSided": false
    }
  ],
  "meshes": [
    {
      "name": "Chest_Base",
      "primitives": [
        {
          "material": 0,
          "mode": 4,
          "attributes": {
            "NORMAL": 2,
            "POSITION": 1
          },
          "indices": 0
        },
        {
          "material": 1,
          "mode": 4,
          "attributes": {
            "NORMAL": 8,
            "POSITION": 7
          },
          "indices": 6
        },
        {
          "material": 2,
          "mode": 4,
          "attributes": {
            "NORMAL": 14,
            "POSITION": 13
          },
          "indices": 12
        }
      ]
    },
    {
      "name": "Chest_Top",
      "primitives": [
        {
          "material": 0,
          "mode": 4,
          "attributes": {
            "NORMAL": 5,
            "POSITION": 4
          },
          "indices": 3
        },
        {
          "material": 1,
          "mode": 4,
          "attributes": {
            "NORMAL": 11,
            "POSITION": 10
          },
          "indices": 9
        }
      ]
    }
  ],
  "nodes": [
    {
      "name": "RootNode",
      "translation": [
        0,
        0,
        0
      ],
      "rotation": [
        0,
        0,
        0,
        1
      ],
      "scale": [
        1,
        1,
        1
      ],
      "children": [
        1,
        2
      ]
    },
    {
      "name": "Chest_Base",
      "translation": [
        0,
        0,
        0
      ],
      "rotation": [
        -0.707106828689575,
        0,
        0,
        0.707106709480286
      ],
      "scale": [
        100,
        100,
        100
      ],
      "mesh": 0
    },
    {
      "name": "Chest_Top",
      "translation": [
        -0.000608439440838993,
        0.524912238121033,
        -0.353019237518311
      ],
      "rotation": [
        -0.707106828689575,
        0,
        0,
        0.707106709480286
      ],
      "scale": [
        100,
        100,
        100
      ],
      "mesh": 1
    }
  ]
}
