{
  "accessors": [
    {
      "name": "mug_1_0_positions",
      "componentType": 5126,
      "count": 244,
      "min": [
        -0.11223690211772919,
        1.5002519969158681e-18,
        -0.12960000336170197
      ],
      "max": [
        0.2202087938785553,
        0.273360013961792,
        0.12960000336170197
      ],
      "type": "VEC3",
      "bufferView": 0,
      "byteOffset": 0
    },
    {
      "name": "mug_1_0_normals",
      "componentType": 5126,
      "count": 244,
      "min": [
        -1,
        -1,
        -1
      ],
      "max": [
        1,
        1,
        1
      ],
      "type": "VEC3",
      "bufferView": 1,
      "byteOffset": 0
    },
    {
      "name": "mug_1_0_texcoords",
      "componentType": 5126,
      "count": 244,
      "min": [
        -8.669636726379395,
        -9.76220989227295
      ],
      "max": [
        8.669636726379395,
        6.102362155914307
      ],
      "type": "VEC2",
      "bufferView": 2,
      "byteOffset": 0
    },
    {
      "name": "mug_1_0_indices",
      "componentType": 5123,
      "count": 444,
      "min": [
        0
      ],
      "max": [
        243
      ],
      "type": "SCALAR",
      "bufferView": 3,
      "byteOffset": 0
    },
    {
      "name": "mug_1_1_positions",
      "componentType": 5126,
      "count": 112,
      "min": [
        -0.12346059828996658,
        0.04800000041723251,
        -0.14256000518798828
      ],
      "max": [
        0.12346059828996658,
        0.213359996676445,
        0.14256000518798828
      ],
      "type": "VEC3",
      "bufferView": 0,
      "byteOffset": 2928
    },
    {
      "name": "mug_1_1_normals",
      "componentType": 5126,
      "count": 112,
      "min": [
        -0.8660253882408142,
        -1,
        -1
      ],
      "max": [
        1,
        1,
        1
      ],
      "type": "VEC3",
      "bufferView": 1,
      "byteOffset": 2928
    },
    {
      "name": "mug_1_1_texcoords",
      "componentType": 5126,
      "count": 112,
      "min": [
        -4.860652923583984,
        -7.400000095367432
      ],
      "max": [
        4.860652923583984,
        6.612597942352295
      ],
      "type": "VEC2",
      "bufferView": 2,
      "byteOffset": 1952
    },
    {
      "name": "mug_1_1_indices",
      "componentType": 5123,
      "count": 252,
      "min": [
        0
      ],
      "max": [
        111
      ],
      "type": "SCALAR",
      "bufferView": 3,
      "byteOffset": 888
    }
  ],
  "asset": {
    "generator": "obj2gltf",
    "version": "2.0"
  },
  "buffers": [
    {
      "name": "mdl_mug_main_v1",
      "byteLength": 12784,
      "uri": "data:application/octet-stream;base64,"
    }
  ],
  "bufferViews": [
    {
      "name": "bufferView_0",
      "buffer": 0,
      "byteLength": 4272,
      "byteOffset": 0,
      "byteStride": 12,
      "target": 34962
    },
    {
      "name": "bufferView_1",
      "buffer": 0,
      "byteLength": 4272,
      "byteOffset": 4272,
      "byteStride": 12,
      "target": 34962
    },
    {
      "name": "bufferView_2",
      "buffer": 0,
      "byteLength": 2848,
      "byteOffset": 8544,
      "byteStride": 8,
      "target": 34962
    },
    {
      "name": "bufferView_3",
      "buffer": 0,
      "byteLength": 1392,
      "byteOffset": 11392,
      "target": 34963
    }
  ],
  "materials": [
    {
      "name": "brownDark",
      "pbrMetallicRoughness": {
        "baseColorFactor": [
          0.6,
          0.22,
          0.11,
          1
        ],
        "metallicFactor": 0,
        "roughnessFactor": 1
      },
      "emissiveFactor": [
        0,
        0,
        0
      ],
      "alphaMode": "OPAQUE",
      "doubleSided": false
    },
    {
      "name": "greyLight",
      "pbrMetallicRoughness": {
        "baseColorFactor": [
          0.69,
          0.8,
          0.9,
          1
        ],
        "metallicFactor": 0,
        "roughnessFactor": 1
      },
      "emissiveFactor": [
        0,
        0,
        0
      ],
      "alphaMode": "OPAQUE",
      "doubleSided": false
    }
  ],
  "meshes": [
    {
      "name": "mug_1",
      "primitives": [
        {
          "attributes": {
            "POSITION": 0,
            "NORMAL": 1,
            "TEXCOORD_0": 2
          },
          "indices": 3,
          "material": 0,
          "mode": 4
        },
        {
          "attributes": {
            "POSITION": 4,
            "NORMAL": 5,
            "TEXCOORD_0": 6
          },
          "indices": 7,
          "material": 1,
          "mode": 4
        }
      ]
    }
  ],
  "nodes": [
    {
      "name": "mug",
      "mesh": 0
    }
  ],
  "scene": 0,
  "scenes": [
    {
      "nodes": [
        0
      ]
    }
  ]
}
