{
	"asset":{
		"generator":"Khronos glTF Blender I/O v4.0.44",
		"version":"2.0"
	},
	"scene":0,
	"scenes":[
		{
			"name":"Scene",
			"nodes":[
				0
			]
		}
	],
	"nodes":[
		{
			"mesh":0,
			"name":"Hull Edit",
			"rotation":[
				0,
				0,
				-0.7071068286895752,
				0.7071068286895752
			],
			"scale":[
				5.518949508666992,
				8.46838092803955,
				5.518949508666992
			],
			"translation":[
				0,
				2.2592880725860596,
				12.450416564941406
			]
		}
	],
	"meshes":[
		{
			"name":"Cylinder.002",
			"primitives":[
				{
					"attributes":{
						"POSITION":0,
						"NORMAL":1,
						"TEXCOORD_0":2
					},
					"indices":3
				}
			]
		}
	],
	"accessors":[
		{
			"bufferView":0,
			"componentType":5126,
			"count":1186,
			"max":[
				1.0000003576278687,
				1,
				1.0000003576278687
			],
			"min":[
				-1.0729588270187378,
				-1,
				-1.0000003576278687
			],
			"type":"VEC3"
		},
		{
			"bufferView":1,
			"componentType":5126,
			"count":1186,
			"type":"VEC3"
		},
		{
			"bufferView":2,
			"componentType":5126,
			"count":1186,
			"type":"VEC2"
		},
		{
			"bufferView":3,
			"componentType":5123,
			"count":2724,
			"type":"SCALAR"
		}
	],
	"bufferViews":[
		{
			"buffer":0,
			"byteLength":14232,
			"byteOffset":0,
			"target":34962
		},
		{
			"buffer":0,
			"byteLength":14232,
			"byteOffset":14232,
			"target":34962
		},
		{
			"buffer":0,
			"byteLength":9488,
			"byteOffset":28464,
			"target":34962
		},
		{
			"buffer":0,
			"byteLength":5448,
			"byteOffset":37952,
			"target":34963
		}
	],
	"buffers":[
		{
			"byteLength":43400,
			"uri":"mdl_room_main-v1.bin"
		}
	]
}
