{
	"asset":{
		"generator":"Khronos glTF Blender I/O v4.0.44",
		"version":"2.0"
	},
	"scene":0,
	"scenes":[
		{
			"name":"Scene",
			"nodes":[
				0
			]
		}
	],
	"nodes":[
		{
			"mesh":0,
			"name":"mdl_room_v4_roof_norms",
			"rotation":[
				-0.5,
				0.5,
				-0.5,
				0.5000000596046448
			],
			"scale":[
				5.518949508666992,
				8.46838092803955,
				5.518949508666992
			],
			"translation":[
				0,
				1.0424473285675049,
				0.40951746702194214
			]
		}
	],
	"meshes":[
		{
			"name":"Cylinder.012",
			"primitives":[
				{
					"attributes":{
						"POSITION":0,
						"NORMAL":1,
						"TEXCOORD_0":2
					},
					"indices":3
				}
			]
		}
	],
	"accessors":[
		{
			"bufferView":0,
			"componentType":5126,
			"count":2287,
			"max":[
				1.0000003576278687,
				1,
				1.0000003576278687
			],
			"min":[
				-1.106935977935791,
				-1,
				-1.0000003576278687
			],
			"type":"VEC3"
		},
		{
			"bufferView":1,
			"componentType":5126,
			"count":2287,
			"type":"VEC3"
		},
		{
			"bufferView":2,
			"componentType":5126,
			"count":2287,
			"type":"VEC2"
		},
		{
			"bufferView":3,
			"componentType":5123,
			"count":6516,
			"type":"SCALAR"
		}
	],
	"bufferViews":[
		{
			"buffer":0,
			"byteLength":27444,
			"byteOffset":0,
			"target":34962
		},
		{
			"buffer":0,
			"byteLength":27444,
			"byteOffset":27444,
			"target":34962
		},
		{
			"buffer":0,
			"byteLength":18296,
			"byteOffset":54888,
			"target":34962
		},
		{
			"buffer":0,
			"byteLength":13032,
			"byteOffset":73184,
			"target":34963
		}
	],
	"buffers":[
		{
			"byteLength":86216,
			"uri":"mdl_room_main_v4.bin"
		}
	]
}
